  0
SECTION
  2
HEADER
  9
$ANGBASE
  50
0.0
  9
$ANGDIR
  70
1
  9
$MEASUREMENT
  70
0
  0
ENDSEC
  0
SECTION
  2
TABLES
  0
TABLE
  2
LTYPE
  70
4
  0
LTYPE
  5
40F
  2
CONTINUOUS
  70
0
  3
Solid line
  72
65
  73
0
  40
0.0
  0
LTYPE
  5
410
  2
DASHDOT
 70
0
  3
Dash Dot ____ _ ____ _
 72
65
 73
4
 40
2.0
 49
1.25
 49
-0.25
 49
0.25
 49
-0.25
  0
LTYPE
  5
411
  2
DASHED
 70
0
  3
Dashed __ __ __ __ __
 72
65
 73
2
 40
0.75
 49
0.5
 49
-0.25
  0
LTYPE
  5
43B
  2
DOTTED
 70
0
  3
Dotted .  .  .  .
 72
65
 73
2
 40
0.2
 49
0.0
 49
-0.2
  0
ENDTAB
  0
TABLE
  2
STYLE
  70
4
  0
STYLE
  2
KICAD
  70
0
  40
0
  41
1
  42
1
  50
0
  71
0
  3
isocp.shx
  0
STYLE
  2
KICADB
  70
0
  40
0
  41
1
  42
1
  50
0
  71
0
  3
isocp.shx
  0
STYLE
  2
KICADI
  70
0
  40
0
  41
1
  42
1
  50
15
  71
0
  3
isocp.shx
  0
STYLE
  2
KICADBI
  70
0
  40
0
  41
1
  42
1
  50
15
  71
0
  3
isocp.shx
  0
ENDTAB
  0
TABLE
  2
LAYER
  70
1
  0
LAYER
  2
BLACK
  70
0
  62
7
  6
CONTINUOUS
  0
ENDTAB
  0
ENDSEC
  0
SECTION
  2
ENTITIES
0
LINE
8
BLACK
6
CONTINUOUS
10
6.19176
20
-1.16516
11
6.19185
21
-1.16518
0
LINE
8
BLACK
6
CONTINUOUS
10
6.19185
20
-1.16518
11
6.19194
21
-1.1652
0
LINE
8
BLACK
6
CONTINUOUS
10
6.19194
20
-1.1652
11
6.20315
21
-1.16858
0
LINE
8
BLACK
6
CONTINUOUS
10
6.20315
20
-1.16858
11
6.20316
21
-1.16859
0
LINE
8
BLACK
6
CONTINUOUS
10
6.20316
20
-1.16859
11
6.20324
21
-1.16862
0
LINE
8
BLACK
6
CONTINUOUS
10
6.20324
20
-1.16862
11
6.20333
21
-1.16866
0
LINE
8
BLACK
6
CONTINUOUS
10
6.20333
20
-1.16866
11
6.21367
21
-1.17416
0
LINE
8
BLACK
6
CONTINUOUS
10
6.21367
20
-1.17416
11
6.21368
21
-1.17416
0
LINE
8
BLACK
6
CONTINUOUS
10
6.21368
20
-1.17416
11
6.21375
21
-1.17421
0
LINE
8
BLACK
6
CONTINUOUS
10
6.21375
20
-1.17421
11
6.21383
21
-1.17426
0
LINE
8
BLACK
6
CONTINUOUS
10
6.21383
20
-1.17426
11
6.2229
21
-1.18166
0
LINE
8
BLACK
6
CONTINUOUS
10
6.2229
20
-1.18166
11
6.2229
21
-1.18166
0
LINE
8
BLACK
6
CONTINUOUS
10
6.2229
20
-1.18166
11
6.2229
21
-1.18166
0
LINE
8
BLACK
6
CONTINUOUS
10
6.2229
20
-1.18166
11
6.22291
21
-1.18167
0
LINE
8
BLACK
6
CONTINUOUS
10
6.22291
20
-1.18167
11
6.22297
21
-1.18174
0
LINE
8
BLACK
6
CONTINUOUS
10
6.22297
20
-1.18174
11
6.22304
21
-1.1818
0
LINE
8
BLACK
6
CONTINUOUS
10
6.22304
20
-1.1818
11
6.2305
21
-1.19082
0
LINE
8
BLACK
6
CONTINUOUS
10
6.2305
20
-1.19082
11
6.23051
21
-1.19083
0
LINE
8
BLACK
6
CONTINUOUS
10
6.23051
20
-1.19083
11
6.23056
21
-1.19091
0
LINE
8
BLACK
6
CONTINUOUS
10
6.23056
20
-1.19091
11
6.23061
21
-1.19098
0
LINE
8
BLACK
6
CONTINUOUS
10
6.23061
20
-1.19098
11
6.23618
21
-1.20128
0
LINE
8
BLACK
6
CONTINUOUS
10
6.23618
20
-1.20128
11
6.23618
21
-1.20129
0
LINE
8
BLACK
6
CONTINUOUS
10
6.23618
20
-1.20129
11
6.23622
21
-1.20138
0
LINE
8
BLACK
6
CONTINUOUS
10
6.23622
20
-1.20138
11
6.23625
21
-1.20146
0
LINE
8
BLACK
6
CONTINUOUS
10
6.23625
20
-1.20146
11
6.23971
21
-1.21264
0
LINE
8
BLACK
6
CONTINUOUS
10
6.23971
20
-1.21264
11
6.23972
21
-1.21266
0
LINE
8
BLACK
6
CONTINUOUS
10
6.23972
20
-1.21266
11
6.23974
21
-1.21275
0
LINE
8
BLACK
6
CONTINUOUS
10
6.23974
20
-1.21275
11
6.23975
21
-1.21283
0
LINE
8
BLACK
6
CONTINUOUS
10
6.23975
20
-1.21283
11
6.24098
21
-1.22448
0
LINE
8
BLACK
6
CONTINUOUS
10
6.24098
20
-1.22448
11
6.24098
21
-1.22449
0
LINE
8
BLACK
6
CONTINUOUS
10
6.24098
20
-1.22449
11
6.24098
21
-1.22454
0
LINE
8
BLACK
6
CONTINUOUS
10
6.24098
20
-1.22454
11
6.24098
21
-1.22458
0
LINE
8
BLACK
6
CONTINUOUS
10
6.24098
20
-1.22458
11
6.24098
21
-1.22495
0
LINE
8
BLACK
6
CONTINUOUS
10
6.24098
20
-1.22495
11
6.24098
21
-1.22495
0
LINE
8
BLACK
6
CONTINUOUS
10
6.24098
20
-1.22495
11
6.24098
21
-3.38497
0
LINE
8
BLACK
6
CONTINUOUS
10
6.24098
20
-3.38497
11
6.24148
21
-3.39262
0
LINE
8
BLACK
6
CONTINUOUS
10
6.24148
20
-3.39262
11
6.24408
21
-3.40386
0
LINE
8
BLACK
6
CONTINUOUS
10
6.24408
20
-3.40386
11
6.24881
21
-3.41436
0
LINE
8
BLACK
6
CONTINUOUS
10
6.24881
20
-3.41436
11
6.25549
21
-3.42374
0
LINE
8
BLACK
6
CONTINUOUS
10
6.25549
20
-3.42374
11
6.26386
21
-3.43165
0
LINE
8
BLACK
6
CONTINUOUS
10
6.26386
20
-3.43165
11
6.27364
21
-3.4378
0
LINE
8
BLACK
6
CONTINUOUS
10
6.27364
20
-3.4378
11
7.51499
21
-4.01891
0
LINE
8
BLACK
6
CONTINUOUS
10
7.51499
20
-4.01891
11
7.51518
21
-4.01892
0
LINE
8
BLACK
6
CONTINUOUS
10
7.51518
20
-4.01892
11
7.51537
21
-4.01896
0
LINE
8
BLACK
6
CONTINUOUS
10
7.51537
20
-4.01896
11
7.51554
21
-4.01904
0
LINE
8
BLACK
6
CONTINUOUS
10
7.51554
20
-4.01904
11
7.52941
21
-4.02712
0
LINE
8
BLACK
6
CONTINUOUS
10
7.52941
20
-4.02712
11
7.52942
21
-4.02712
0
LINE
8
BLACK
6
CONTINUOUS
10
7.52942
20
-4.02712
11
7.52949
21
-4.02718
0
LINE
8
BLACK
6
CONTINUOUS
10
7.52949
20
-4.02718
11
7.52956
21
-4.02723
0
LINE
8
BLACK
6
CONTINUOUS
10
7.52956
20
-4.02723
11
7.54159
21
-4.03784
0
LINE
8
BLACK
6
CONTINUOUS
10
7.54159
20
-4.03784
11
7.5416
21
-4.03785
0
LINE
8
BLACK
6
CONTINUOUS
10
7.5416
20
-4.03785
11
7.54167
21
-4.03792
0
LINE
8
BLACK
6
CONTINUOUS
10
7.54167
20
-4.03792
11
7.54172
21
-4.03798
0
LINE
8
BLACK
6
CONTINUOUS
10
7.54172
20
-4.03798
11
7.55146
21
-4.05073
0
LINE
8
BLACK
6
CONTINUOUS
10
7.55146
20
-4.05073
11
7.55147
21
-4.05074
0
LINE
8
BLACK
6
CONTINUOUS
10
7.55147
20
-4.05074
11
7.55152
21
-4.05082
0
LINE
8
BLACK
6
CONTINUOUS
10
7.55152
20
-4.05082
11
7.55156
21
-4.0509
0
LINE
8
BLACK
6
CONTINUOUS
10
7.55156
20
-4.0509
11
7.55864
21
-4.06529
0
LINE
8
BLACK
6
CONTINUOUS
10
7.55864
20
-4.06529
11
7.55865
21
-4.06531
0
LINE
8
BLACK
6
CONTINUOUS
10
7.55865
20
-4.06531
11
7.55868
21
-4.06539
0
LINE
8
BLACK
6
CONTINUOUS
10
7.55868
20
-4.06539
11
7.55871
21
-4.06547
0
LINE
8
BLACK
6
CONTINUOUS
10
7.55871
20
-4.06547
11
7.56286
21
-4.08097
0
LINE
8
BLACK
6
CONTINUOUS
10
7.56286
20
-4.08097
11
7.56286
21
-4.08099
0
LINE
8
BLACK
6
CONTINUOUS
10
7.56286
20
-4.08099
11
7.56287
21
-4.08107
0
LINE
8
BLACK
6
CONTINUOUS
10
7.56287
20
-4.08107
11
7.56289
21
-4.08116
0
LINE
8
BLACK
6
CONTINUOUS
10
7.56289
20
-4.08116
11
7.56394
21
-4.09717
0
LINE
8
BLACK
6
CONTINUOUS
10
7.56394
20
-4.09717
11
7.56394
21
-4.09718
0
LINE
8
BLACK
6
CONTINUOUS
10
7.56394
20
-4.09718
11
7.56394
21
-4.09727
0
LINE
8
BLACK
6
CONTINUOUS
10
7.56394
20
-4.09727
11
7.56394
21
-4.09736
0
LINE
8
BLACK
6
CONTINUOUS
10
7.56394
20
-4.09736
11
7.56187
21
-4.11327
0
LINE
8
BLACK
6
CONTINUOUS
10
7.56187
20
-4.11327
11
7.56186
21
-4.11328
0
LINE
8
BLACK
6
CONTINUOUS
10
7.56186
20
-4.11328
11
7.56184
21
-4.11337
0
LINE
8
BLACK
6
CONTINUOUS
10
7.56184
20
-4.11337
11
7.56182
21
-4.11346
0
LINE
8
BLACK
6
CONTINUOUS
10
7.56182
20
-4.11346
11
7.5567
21
-4.12866
0
LINE
8
BLACK
6
CONTINUOUS
10
7.5567
20
-4.12866
11
7.55669
21
-4.12867
0
LINE
8
BLACK
6
CONTINUOUS
10
7.55669
20
-4.12867
11
7.55667
21
-4.12872
0
LINE
8
BLACK
6
CONTINUOUS
10
7.55667
20
-4.12872
11
7.55666
21
-4.12876
0
LINE
8
BLACK
6
CONTINUOUS
10
7.55666
20
-4.12876
11
7.55591
21
-4.13037
0
LINE
8
BLACK
6
CONTINUOUS
10
7.55591
20
-4.13037
11
7.55591
21
-4.13037
0
LINE
8
BLACK
6
CONTINUOUS
10
7.55591
20
-4.13037
11
7.5559
21
-4.13041
0
LINE
8
BLACK
6
CONTINUOUS
10
7.5559
20
-4.13041
11
7.55589
21
-4.13041
0
LINE
8
BLACK
6
CONTINUOUS
10
7.55589
20
-4.13041
11
7.55589
21
-4.13042
0
LINE
8
BLACK
6
CONTINUOUS
10
7.55589
20
-4.13042
11
7.14587
21
-5.01046
0
LINE
8
BLACK
6
CONTINUOUS
10
7.14587
20
-5.01046
11
7.14585
21
-5.01049
0
LINE
8
BLACK
6
CONTINUOUS
10
7.14585
20
-5.01049
11
7.14585
21
-5.01049
0
LINE
8
BLACK
6
CONTINUOUS
10
7.14585
20
-5.01049
11
7.13776
21
-5.02448
0
LINE
8
BLACK
6
CONTINUOUS
10
7.13776
20
-5.02448
11
7.13776
21
-5.02449
0
LINE
8
BLACK
6
CONTINUOUS
10
7.13776
20
-5.02449
11
7.1377
21
-5.02456
0
LINE
8
BLACK
6
CONTINUOUS
10
7.1377
20
-5.02456
11
7.13765
21
-5.02463
0
LINE
8
BLACK
6
CONTINUOUS
10
7.13765
20
-5.02463
11
7.127
21
-5.03678
0
LINE
8
BLACK
6
CONTINUOUS
10
7.127
20
-5.03678
11
7.12699
21
-5.03679
0
LINE
8
BLACK
6
CONTINUOUS
10
7.12699
20
-5.03679
11
7.12693
21
-5.03685
0
LINE
8
BLACK
6
CONTINUOUS
10
7.12693
20
-5.03685
11
7.12686
21
-5.03691
0
LINE
8
BLACK
6
CONTINUOUS
10
7.12686
20
-5.03691
11
7.11406
21
-5.04675
0
LINE
8
BLACK
6
CONTINUOUS
10
7.11406
20
-5.04675
11
7.11406
21
-5.04675
0
LINE
8
BLACK
6
CONTINUOUS
10
7.11406
20
-5.04675
11
7.11406
21
-5.04675
0
LINE
8
BLACK
6
CONTINUOUS
10
7.11406
20
-5.04675
11
7.11405
21
-5.04676
0
LINE
8
BLACK
6
CONTINUOUS
10
7.11405
20
-5.04676
11
7.11397
21
-5.04681
0
LINE
8
BLACK
6
CONTINUOUS
10
7.11397
20
-5.04681
11
7.1139
21
-5.04686
0
LINE
8
BLACK
6
CONTINUOUS
10
7.1139
20
-5.04686
11
7.09942
21
-5.05403
0
LINE
8
BLACK
6
CONTINUOUS
10
7.09942
20
-5.05403
11
7.09941
21
-5.05403
0
LINE
8
BLACK
6
CONTINUOUS
10
7.09941
20
-5.05403
11
7.09932
21
-5.05406
0
LINE
8
BLACK
6
CONTINUOUS
10
7.09932
20
-5.05406
11
7.09924
21
-5.05409
0
LINE
8
BLACK
6
CONTINUOUS
10
7.09924
20
-5.05409
11
7.08365
21
-5.05832
0
LINE
8
BLACK
6
CONTINUOUS
10
7.08365
20
-5.05832
11
7.08365
21
-5.05832
0
LINE
8
BLACK
6
CONTINUOUS
10
7.08365
20
-5.05832
11
7.08365
21
-5.05832
0
LINE
8
BLACK
6
CONTINUOUS
10
7.08365
20
-5.05832
11
7.08364
21
-5.05832
0
LINE
8
BLACK
6
CONTINUOUS
10
7.08364
20
-5.05832
11
7.08355
21
-5.05834
0
LINE
8
BLACK
6
CONTINUOUS
10
7.08355
20
-5.05834
11
7.08346
21
-5.05835
0
LINE
8
BLACK
6
CONTINUOUS
10
7.08346
20
-5.05835
11
7.06735
21
-5.05946
0
LINE
8
BLACK
6
CONTINUOUS
10
7.06735
20
-5.05946
11
7.06735
21
-5.05946
0
LINE
8
BLACK
6
CONTINUOUS
10
7.06735
20
-5.05946
11
7.06735
21
-5.05946
0
LINE
8
BLACK
6
CONTINUOUS
10
7.06735
20
-5.05946
11
7.06733
21
-5.05947
0
LINE
8
BLACK
6
CONTINUOUS
10
7.06733
20
-5.05947
11
7.06724
21
-5.05946
0
LINE
8
BLACK
6
CONTINUOUS
10
7.06724
20
-5.05946
11
7.06716
21
-5.05946
0
LINE
8
BLACK
6
CONTINUOUS
10
7.06716
20
-5.05946
11
7.05113
21
-5.05742
0
LINE
8
BLACK
6
CONTINUOUS
10
7.05113
20
-5.05742
11
7.05113
21
-5.05742
0
LINE
8
BLACK
6
CONTINUOUS
10
7.05113
20
-5.05742
11
7.05113
21
-5.05742
0
LINE
8
BLACK
6
CONTINUOUS
10
7.05113
20
-5.05742
11
7.05112
21
-5.05742
0
LINE
8
BLACK
6
CONTINUOUS
10
7.05112
20
-5.05742
11
7.05103
21
-5.0574
0
LINE
8
BLACK
6
CONTINUOUS
10
7.05103
20
-5.0574
11
7.05094
21
-5.05738
0
LINE
8
BLACK
6
CONTINUOUS
10
7.05094
20
-5.05738
11
7.03562
21
-5.05227
0
LINE
8
BLACK
6
CONTINUOUS
10
7.03562
20
-5.05227
11
7.03561
21
-5.05226
0
LINE
8
BLACK
6
CONTINUOUS
10
7.03561
20
-5.05226
11
7.03557
21
-5.05225
0
LINE
8
BLACK
6
CONTINUOUS
10
7.03557
20
-5.05225
11
7.03552
21
-5.05223
0
LINE
8
BLACK
6
CONTINUOUS
10
7.03552
20
-5.05223
11
7.03428
21
-5.05166
0
LINE
8
BLACK
6
CONTINUOUS
10
7.03428
20
-5.05166
11
7.03428
21
-5.05166
0
LINE
8
BLACK
6
CONTINUOUS
10
7.03428
20
-5.05166
11
7.03424
21
-5.05164
0
LINE
8
BLACK
6
CONTINUOUS
10
7.03424
20
-5.05164
11
7.03423
21
-5.05164
0
LINE
8
BLACK
6
CONTINUOUS
10
7.03423
20
-5.05164
11
7.03423
21
-5.05164
0
LINE
8
BLACK
6
CONTINUOUS
10
7.03423
20
-5.05164
11
5.75954
21
-4.45087
0
LINE
8
BLACK
6
CONTINUOUS
10
5.75954
20
-4.45087
11
5.75951
21
-4.45085
0
LINE
8
BLACK
6
CONTINUOUS
10
5.75951
20
-4.45085
11
5.74536
21
-4.443
0
LINE
8
BLACK
6
CONTINUOUS
10
5.74536
20
-4.443
11
5.74535
21
-4.443
0
LINE
8
BLACK
6
CONTINUOUS
10
5.74535
20
-4.443
11
5.7453
21
-4.44296
0
LINE
8
BLACK
6
CONTINUOUS
10
5.7453
20
-4.44296
11
5.74525
21
-4.44293
0
LINE
8
BLACK
6
CONTINUOUS
10
5.74525
20
-4.44293
11
5.74014
21
-4.4391
0
LINE
8
BLACK
6
CONTINUOUS
10
5.74014
20
-4.4391
11
5.67579
21
-4.39114
0
LINE
8
BLACK
6
CONTINUOUS
10
5.67579
20
-4.39114
11
5.52562
21
-4.28468
0
LINE
8
BLACK
6
CONTINUOUS
10
5.52562
20
-4.28468
11
5.37201
21
-4.18326
0
LINE
8
BLACK
6
CONTINUOUS
10
5.37201
20
-4.18326
11
5.21512
21
-4.08699
0
LINE
8
BLACK
6
CONTINUOUS
10
5.21512
20
-4.08699
11
5.05512
21
-3.99597
0
LINE
8
BLACK
6
CONTINUOUS
10
5.05512
20
-3.99597
11
4.89219
21
-3.91031
0
LINE
8
BLACK
6
CONTINUOUS
10
4.89219
20
-3.91031
11
4.72652
21
-3.8301
0
LINE
8
BLACK
6
CONTINUOUS
10
4.72652
20
-3.8301
11
4.55827
21
-3.75542
0
LINE
8
BLACK
6
CONTINUOUS
10
4.55827
20
-3.75542
11
4.38765
21
-3.68637
0
LINE
8
BLACK
6
CONTINUOUS
10
4.38765
20
-3.68637
11
4.21493
21
-3.62305
0
LINE
8
BLACK
6
CONTINUOUS
10
4.21493
20
-3.62305
11
4.04959
21
-3.60808
0
LINE
8
BLACK
6
CONTINUOUS
10
4.04959
20
-3.60808
11
3.88241
21
-3.5988
0
LINE
8
BLACK
6
CONTINUOUS
10
3.88241
20
-3.5988
11
3.715
21
-3.59535
0
LINE
8
BLACK
6
CONTINUOUS
10
3.715
20
-3.59535
11
3.54757
21
-3.59775
0
LINE
8
BLACK
6
CONTINUOUS
10
3.54757
20
-3.59775
11
3.38033
21
-3.60599
0
LINE
8
BLACK
6
CONTINUOUS
10
3.38033
20
-3.60599
11
3.2135
21
-3.62006
0
LINE
8
BLACK
6
CONTINUOUS
10
3.2135
20
-3.62006
11
3.12761
21
-3.63439
0
LINE
8
BLACK
6
CONTINUOUS
10
3.12761
20
-3.63439
11
2.55516
21
-3.75597
0
LINE
8
BLACK
6
CONTINUOUS
10
2.55516
20
-3.75597
11
2.5551
21
-3.75598
0
LINE
8
BLACK
6
CONTINUOUS
10
2.5551
20
-3.75598
11
2.5551
21
-3.75598
0
LINE
8
BLACK
6
CONTINUOUS
10
2.5551
20
-3.75598
11
2.5551
21
-3.75598
0
LINE
8
BLACK
6
CONTINUOUS
10
2.5551
20
-3.75598
11
2.55501
21
-3.75599
0
LINE
8
BLACK
6
CONTINUOUS
10
2.55501
20
-3.75599
11
2.55501
21
-3.75599
0
LINE
8
BLACK
6
CONTINUOUS
10
2.55501
20
-3.75599
11
2.53529
21
-3.75796
0
LINE
8
BLACK
6
CONTINUOUS
10
2.53529
20
-3.75796
11
2.53528
21
-3.75796
0
LINE
8
BLACK
6
CONTINUOUS
10
2.53528
20
-3.75796
11
2.53519
21
-3.75796
0
LINE
8
BLACK
6
CONTINUOUS
10
2.53519
20
-3.75796
11
2.5351
21
-3.75796
0
LINE
8
BLACK
6
CONTINUOUS
10
2.5351
20
-3.75796
11
2.51529
21
-3.75606
0
LINE
8
BLACK
6
CONTINUOUS
10
2.51529
20
-3.75606
11
2.51528
21
-3.75605
0
LINE
8
BLACK
6
CONTINUOUS
10
2.51528
20
-3.75605
11
2.51519
21
-3.75604
0
LINE
8
BLACK
6
CONTINUOUS
10
2.51519
20
-3.75604
11
2.5151
21
-3.75602
0
LINE
8
BLACK
6
CONTINUOUS
10
2.5151
20
-3.75602
11
2.49604
21
-3.7503
0
LINE
8
BLACK
6
CONTINUOUS
10
2.49604
20
-3.7503
11
2.49602
21
-3.7503
0
LINE
8
BLACK
6
CONTINUOUS
10
2.49602
20
-3.7503
11
2.49594
21
-3.75026
0
LINE
8
BLACK
6
CONTINUOUS
10
2.49594
20
-3.75026
11
2.49586
21
-3.75023
0
LINE
8
BLACK
6
CONTINUOUS
10
2.49586
20
-3.75023
11
2.47827
21
-3.74092
0
LINE
8
BLACK
6
CONTINUOUS
10
2.47827
20
-3.74092
11
2.47827
21
-3.74092
0
LINE
8
BLACK
6
CONTINUOUS
10
2.47827
20
-3.74092
11
2.47827
21
-3.74092
0
LINE
8
BLACK
6
CONTINUOUS
10
2.47827
20
-3.74092
11
2.47826
21
-3.74091
0
LINE
8
BLACK
6
CONTINUOUS
10
2.47826
20
-3.74091
11
2.47818
21
-3.74086
0
LINE
8
BLACK
6
CONTINUOUS
10
2.47818
20
-3.74086
11
2.47811
21
-3.74081
0
LINE
8
BLACK
6
CONTINUOUS
10
2.47811
20
-3.74081
11
2.46266
21
-3.72826
0
LINE
8
BLACK
6
CONTINUOUS
10
2.46266
20
-3.72826
11
2.46265
21
-3.72826
0
LINE
8
BLACK
6
CONTINUOUS
10
2.46265
20
-3.72826
11
2.46259
21
-3.72819
0
LINE
8
BLACK
6
CONTINUOUS
10
2.46259
20
-3.72819
11
2.46252
21
-3.72813
0
LINE
8
BLACK
6
CONTINUOUS
10
2.46252
20
-3.72813
11
2.44981
21
-3.71282
0
LINE
8
BLACK
6
CONTINUOUS
10
2.44981
20
-3.71282
11
2.4498
21
-3.71281
0
LINE
8
BLACK
6
CONTINUOUS
10
2.4498
20
-3.71281
11
2.44975
21
-3.71273
0
LINE
8
BLACK
6
CONTINUOUS
10
2.44975
20
-3.71273
11
2.4497
21
-3.71266
0
LINE
8
BLACK
6
CONTINUOUS
10
2.4497
20
-3.71266
11
2.4402
21
-3.69517
0
LINE
8
BLACK
6
CONTINUOUS
10
2.4402
20
-3.69517
11
2.44019
21
-3.69516
0
LINE
8
BLACK
6
CONTINUOUS
10
2.44019
20
-3.69516
11
2.44016
21
-3.69507
0
LINE
8
BLACK
6
CONTINUOUS
10
2.44016
20
-3.69507
11
2.44012
21
-3.69499
0
LINE
8
BLACK
6
CONTINUOUS
10
2.44012
20
-3.69499
11
2.4342
21
-3.67599
0
LINE
8
BLACK
6
CONTINUOUS
10
2.4342
20
-3.67599
11
2.4342
21
-3.67598
0
LINE
8
BLACK
6
CONTINUOUS
10
2.4342
20
-3.67598
11
2.43419
21
-3.67593
0
LINE
8
BLACK
6
CONTINUOUS
10
2.43419
20
-3.67593
11
2.43418
21
-3.67589
0
LINE
8
BLACK
6
CONTINUOUS
10
2.43418
20
-3.67589
11
2.43404
21
-3.6752
0
LINE
8
BLACK
6
CONTINUOUS
10
2.43404
20
-3.6752
11
2.15903
21
-2.41016
0
LINE
8
BLACK
6
CONTINUOUS
10
2.15903
20
-2.41016
11
2.15901
21
-2.41002
0
LINE
8
BLACK
6
CONTINUOUS
10
2.15901
20
-2.41002
11
2.15901
21
-2.41001
0
LINE
8
BLACK
6
CONTINUOUS
10
2.15901
20
-2.41001
11
2.15704
21
-2.39029
0
LINE
8
BLACK
6
CONTINUOUS
10
2.15704
20
-2.39029
11
2.15704
21
-2.39028
0
LINE
8
BLACK
6
CONTINUOUS
10
2.15704
20
-2.39028
11
2.15704
21
-2.39019
0
LINE
8
BLACK
6
CONTINUOUS
10
2.15704
20
-2.39019
11
2.15704
21
-2.3901
0
LINE
8
BLACK
6
CONTINUOUS
10
2.15704
20
-2.3901
11
2.15894
21
-2.37029
0
LINE
8
BLACK
6
CONTINUOUS
10
2.15894
20
-2.37029
11
2.15895
21
-2.37028
0
LINE
8
BLACK
6
CONTINUOUS
10
2.15895
20
-2.37028
11
2.15896
21
-2.37019
0
LINE
8
BLACK
6
CONTINUOUS
10
2.15896
20
-2.37019
11
2.15898
21
-2.3701
0
LINE
8
BLACK
6
CONTINUOUS
10
2.15898
20
-2.3701
11
2.1647
21
-2.35104
0
LINE
8
BLACK
6
CONTINUOUS
10
2.1647
20
-2.35104
11
2.1647
21
-2.35102
0
LINE
8
BLACK
6
CONTINUOUS
10
2.1647
20
-2.35102
11
2.16474
21
-2.35094
0
LINE
8
BLACK
6
CONTINUOUS
10
2.16474
20
-2.35094
11
2.16477
21
-2.35086
0
LINE
8
BLACK
6
CONTINUOUS
10
2.16477
20
-2.35086
11
2.17408
21
-2.33327
0
LINE
8
BLACK
6
CONTINUOUS
10
2.17408
20
-2.33327
11
2.17409
21
-2.33326
0
LINE
8
BLACK
6
CONTINUOUS
10
2.17409
20
-2.33326
11
2.17414
21
-2.33318
0
LINE
8
BLACK
6
CONTINUOUS
10
2.17414
20
-2.33318
11
2.17419
21
-2.33311
0
LINE
8
BLACK
6
CONTINUOUS
10
2.17419
20
-2.33311
11
2.18674
21
-2.31766
0
LINE
8
BLACK
6
CONTINUOUS
10
2.18674
20
-2.31766
11
2.18674
21
-2.31766
0
LINE
8
BLACK
6
CONTINUOUS
10
2.18674
20
-2.31766
11
2.18674
21
-2.31766
0
LINE
8
BLACK
6
CONTINUOUS
10
2.18674
20
-2.31766
11
2.18674
21
-2.31765
0
LINE
8
BLACK
6
CONTINUOUS
10
2.18674
20
-2.31765
11
2.18681
21
-2.31759
0
LINE
8
BLACK
6
CONTINUOUS
10
2.18681
20
-2.31759
11
2.18687
21
-2.31752
0
LINE
8
BLACK
6
CONTINUOUS
10
2.18687
20
-2.31752
11
2.20218
21
-2.30481
0
LINE
8
BLACK
6
CONTINUOUS
10
2.20218
20
-2.30481
11
2.20219
21
-2.3048
0
LINE
8
BLACK
6
CONTINUOUS
10
2.20219
20
-2.3048
11
2.20227
21
-2.30475
0
LINE
8
BLACK
6
CONTINUOUS
10
2.20227
20
-2.30475
11
2.20234
21
-2.3047
0
LINE
8
BLACK
6
CONTINUOUS
10
2.20234
20
-2.3047
11
2.21983
21
-2.2952
0
LINE
8
BLACK
6
CONTINUOUS
10
2.21983
20
-2.2952
11
2.21984
21
-2.29519
0
LINE
8
BLACK
6
CONTINUOUS
10
2.21984
20
-2.29519
11
2.21993
21
-2.29516
0
LINE
8
BLACK
6
CONTINUOUS
10
2.21993
20
-2.29516
11
2.22001
21
-2.29512
0
LINE
8
BLACK
6
CONTINUOUS
10
2.22001
20
-2.29512
11
2.23901
21
-2.2892
0
LINE
8
BLACK
6
CONTINUOUS
10
2.23901
20
-2.2892
11
2.23902
21
-2.2892
0
LINE
8
BLACK
6
CONTINUOUS
10
2.23902
20
-2.2892
11
2.23907
21
-2.28919
0
LINE
8
BLACK
6
CONTINUOUS
10
2.23907
20
-2.28919
11
2.23911
21
-2.28918
0
LINE
8
BLACK
6
CONTINUOUS
10
2.23911
20
-2.28918
11
2.2398
21
-2.28904
0
LINE
8
BLACK
6
CONTINUOUS
10
2.2398
20
-2.28904
11
2.2398
21
-2.28904
0
LINE
8
BLACK
6
CONTINUOUS
10
2.2398
20
-2.28904
11
2.8598
21
-2.15904
0
LINE
8
BLACK
6
CONTINUOUS
10
2.8598
20
-2.15904
11
3.13979
21
-2.09904
0
LINE
8
BLACK
6
CONTINUOUS
10
3.13979
20
-2.09904
11
3.14459
21
-2.09796
0
LINE
8
BLACK
6
CONTINUOUS
10
3.14459
20
-2.09796
11
3.16318
21
-2.0913
0
LINE
8
BLACK
6
CONTINUOUS
10
3.16318
20
-2.0913
11
3.18009
21
-2.08117
0
LINE
8
BLACK
6
CONTINUOUS
10
3.18009
20
-2.08117
11
3.19471
21
-2.06796
0
LINE
8
BLACK
6
CONTINUOUS
10
3.19471
20
-2.06796
11
3.20648
21
-2.05215
0
LINE
8
BLACK
6
CONTINUOUS
10
3.20648
20
-2.05215
11
3.21497
21
-2.03436
0
LINE
8
BLACK
6
CONTINUOUS
10
3.21497
20
-2.03436
11
3.21983
21
-2.01529
0
LINE
8
BLACK
6
CONTINUOUS
10
3.21983
20
-2.01529
11
3.21922
21
-1.40997
0
LINE
8
BLACK
6
CONTINUOUS
10
3.21922
20
-1.40997
11
3.21924
21
-1.40983
0
LINE
8
BLACK
6
CONTINUOUS
10
3.21924
20
-1.40983
11
3.21925
21
-1.40979
0
LINE
8
BLACK
6
CONTINUOUS
10
3.21925
20
-1.40979
11
3.22135
21
-1.39832
0
LINE
8
BLACK
6
CONTINUOUS
10
3.22135
20
-1.39832
11
3.22135
21
-1.39831
0
LINE
8
BLACK
6
CONTINUOUS
10
3.22135
20
-1.39831
11
3.22137
21
-1.39822
0
LINE
8
BLACK
6
CONTINUOUS
10
3.22137
20
-1.39822
11
3.2214
21
-1.39814
0
LINE
8
BLACK
6
CONTINUOUS
10
3.2214
20
-1.39814
11
3.2257
21
-1.38725
0
LINE
8
BLACK
6
CONTINUOUS
10
3.2257
20
-1.38725
11
3.22571
21
-1.38723
0
LINE
8
BLACK
6
CONTINUOUS
10
3.22571
20
-1.38723
11
3.22575
21
-1.38715
0
LINE
8
BLACK
6
CONTINUOUS
10
3.22575
20
-1.38715
11
3.22579
21
-1.38708
0
LINE
8
BLACK
6
CONTINUOUS
10
3.22579
20
-1.38708
11
3.23213
21
-1.37723
0
LINE
8
BLACK
6
CONTINUOUS
10
3.23213
20
-1.37723
11
3.23213
21
-1.37722
0
LINE
8
BLACK
6
CONTINUOUS
10
3.23213
20
-1.37722
11
3.23219
21
-1.37715
0
LINE
8
BLACK
6
CONTINUOUS
10
3.23219
20
-1.37715
11
3.23225
21
-1.37708
0
LINE
8
BLACK
6
CONTINUOUS
10
3.23225
20
-1.37708
11
3.24038
21
-1.36865
0
LINE
8
BLACK
6
CONTINUOUS
10
3.24038
20
-1.36865
11
3.24038
21
-1.36865
0
LINE
8
BLACK
6
CONTINUOUS
10
3.24038
20
-1.36865
11
3.24038
21
-1.36865
0
LINE
8
BLACK
6
CONTINUOUS
10
3.24038
20
-1.36865
11
3.24038
21
-1.36864
0
LINE
8
BLACK
6
CONTINUOUS
10
3.24038
20
-1.36864
11
3.24045
21
-1.36858
0
LINE
8
BLACK
6
CONTINUOUS
10
3.24045
20
-1.36858
11
3.24052
21
-1.36852
0
LINE
8
BLACK
6
CONTINUOUS
10
3.24052
20
-1.36852
11
3.25013
21
-1.36184
0
LINE
8
BLACK
6
CONTINUOUS
10
3.25013
20
-1.36184
11
3.25014
21
-1.36183
0
LINE
8
BLACK
6
CONTINUOUS
10
3.25014
20
-1.36183
11
3.25022
21
-1.36179
0
LINE
8
BLACK
6
CONTINUOUS
10
3.25022
20
-1.36179
11
3.2503
21
-1.36174
0
LINE
8
BLACK
6
CONTINUOUS
10
3.2503
20
-1.36174
11
3.26103
21
-1.35705
0
LINE
8
BLACK
6
CONTINUOUS
10
3.26103
20
-1.35705
11
3.26104
21
-1.35704
0
LINE
8
BLACK
6
CONTINUOUS
10
3.26104
20
-1.35704
11
3.26113
21
-1.35701
0
LINE
8
BLACK
6
CONTINUOUS
10
3.26113
20
-1.35701
11
3.26121
21
-1.35699
0
LINE
8
BLACK
6
CONTINUOUS
10
3.26121
20
-1.35699
11
3.27265
21
-1.35447
0
LINE
8
BLACK
6
CONTINUOUS
10
3.27265
20
-1.35447
11
3.27266
21
-1.35446
0
LINE
8
BLACK
6
CONTINUOUS
10
3.27266
20
-1.35446
11
3.27273
21
-1.35446
0
LINE
8
BLACK
6
CONTINUOUS
10
3.27273
20
-1.35446
11
3.2728
21
-1.35444
0
LINE
8
BLACK
6
CONTINUOUS
10
3.2728
20
-1.35444
11
3.27992
21
-1.35402
0
LINE
8
BLACK
6
CONTINUOUS
10
3.27992
20
-1.35402
11
3.27995
21
-1.35402
0
LINE
8
BLACK
6
CONTINUOUS
10
3.27995
20
-1.35402
11
3.915
21
-1.35402
0
LINE
8
BLACK
6
CONTINUOUS
10
3.915
20
-1.35402
11
3.91537
21
-1.35401
0
LINE
8
BLACK
6
CONTINUOUS
10
3.91537
20
-1.35401
11
3.92687
21
-1.35281
0
LINE
8
BLACK
6
CONTINUOUS
10
3.92687
20
-1.35281
11
3.93787
21
-1.3494
0
LINE
8
BLACK
6
CONTINUOUS
10
3.93787
20
-1.3494
11
3.948
21
-1.34392
0
LINE
8
BLACK
6
CONTINUOUS
10
3.948
20
-1.34392
11
3.95687
21
-1.33658
0
LINE
8
BLACK
6
CONTINUOUS
10
3.95687
20
-1.33658
11
3.96415
21
-1.32766
0
LINE
8
BLACK
6
CONTINUOUS
10
3.96415
20
-1.32766
11
3.96956
21
-1.31749
0
LINE
8
BLACK
6
CONTINUOUS
10
3.96956
20
-1.31749
11
3.97289
21
-1.30646
0
LINE
8
BLACK
6
CONTINUOUS
10
3.97289
20
-1.30646
11
3.97402
21
-1.29495
0
LINE
8
BLACK
6
CONTINUOUS
10
3.97402
20
-1.29495
11
3.97422
21
-1.21997
0
LINE
8
BLACK
6
CONTINUOUS
10
3.97422
20
-1.21997
11
3.97424
21
-1.21982
0
LINE
8
BLACK
6
CONTINUOUS
10
3.97424
20
-1.21982
11
3.97425
21
-1.21978
0
LINE
8
BLACK
6
CONTINUOUS
10
3.97425
20
-1.21978
11
3.97635
21
-1.20832
0
LINE
8
BLACK
6
CONTINUOUS
10
3.97635
20
-1.20832
11
3.97635
21
-1.20831
0
LINE
8
BLACK
6
CONTINUOUS
10
3.97635
20
-1.20831
11
3.97637
21
-1.20822
0
LINE
8
BLACK
6
CONTINUOUS
10
3.97637
20
-1.20822
11
3.9764
21
-1.20814
0
LINE
8
BLACK
6
CONTINUOUS
10
3.9764
20
-1.20814
11
3.9807
21
-1.19725
0
LINE
8
BLACK
6
CONTINUOUS
10
3.9807
20
-1.19725
11
3.98071
21
-1.19723
0
LINE
8
BLACK
6
CONTINUOUS
10
3.98071
20
-1.19723
11
3.98075
21
-1.19715
0
LINE
8
BLACK
6
CONTINUOUS
10
3.98075
20
-1.19715
11
3.98079
21
-1.19708
0
LINE
8
BLACK
6
CONTINUOUS
10
3.98079
20
-1.19708
11
3.98713
21
-1.18723
0
LINE
8
BLACK
6
CONTINUOUS
10
3.98713
20
-1.18723
11
3.98713
21
-1.18722
0
LINE
8
BLACK
6
CONTINUOUS
10
3.98713
20
-1.18722
11
3.98719
21
-1.18715
0
LINE
8
BLACK
6
CONTINUOUS
10
3.98719
20
-1.18715
11
3.98725
21
-1.18708
0
LINE
8
BLACK
6
CONTINUOUS
10
3.98725
20
-1.18708
11
3.99538
21
-1.17865
0
LINE
8
BLACK
6
CONTINUOUS
10
3.99538
20
-1.17865
11
3.99538
21
-1.17865
0
LINE
8
BLACK
6
CONTINUOUS
10
3.99538
20
-1.17865
11
3.99538
21
-1.17865
0
LINE
8
BLACK
6
CONTINUOUS
10
3.99538
20
-1.17865
11
3.99538
21
-1.17864
0
LINE
8
BLACK
6
CONTINUOUS
10
3.99538
20
-1.17864
11
3.99545
21
-1.17858
0
LINE
8
BLACK
6
CONTINUOUS
10
3.99545
20
-1.17858
11
3.99552
21
-1.17852
0
LINE
8
BLACK
6
CONTINUOUS
10
3.99552
20
-1.17852
11
4.00513
21
-1.17184
0
LINE
8
BLACK
6
CONTINUOUS
10
4.00513
20
-1.17184
11
4.00514
21
-1.17183
0
LINE
8
BLACK
6
CONTINUOUS
10
4.00514
20
-1.17183
11
4.00522
21
-1.17179
0
LINE
8
BLACK
6
CONTINUOUS
10
4.00522
20
-1.17179
11
4.0053
21
-1.17174
0
LINE
8
BLACK
6
CONTINUOUS
10
4.0053
20
-1.17174
11
4.01603
21
-1.16705
0
LINE
8
BLACK
6
CONTINUOUS
10
4.01603
20
-1.16705
11
4.01604
21
-1.16704
0
LINE
8
BLACK
6
CONTINUOUS
10
4.01604
20
-1.16704
11
4.01613
21
-1.16701
0
LINE
8
BLACK
6
CONTINUOUS
10
4.01613
20
-1.16701
11
4.01621
21
-1.16699
0
LINE
8
BLACK
6
CONTINUOUS
10
4.01621
20
-1.16699
11
4.02765
21
-1.16447
0
LINE
8
BLACK
6
CONTINUOUS
10
4.02765
20
-1.16447
11
4.02766
21
-1.16446
0
LINE
8
BLACK
6
CONTINUOUS
10
4.02766
20
-1.16446
11
4.02773
21
-1.16446
0
LINE
8
BLACK
6
CONTINUOUS
10
4.02773
20
-1.16446
11
4.0278
21
-1.16444
0
LINE
8
BLACK
6
CONTINUOUS
10
4.0278
20
-1.16444
11
4.03492
21
-1.16402
0
LINE
8
BLACK
6
CONTINUOUS
10
4.03492
20
-1.16402
11
4.03495
21
-1.16402
0
LINE
8
BLACK
6
CONTINUOUS
10
4.03495
20
-1.16402
11
6.18005
21
-1.16402
0
LINE
8
BLACK
6
CONTINUOUS
10
6.18005
20
-1.16402
11
6.1801
21
-1.16402
0
LINE
8
BLACK
6
CONTINUOUS
10
6.1801
20
-1.16402
11
6.1801
21
-1.16402
0
LINE
8
BLACK
6
CONTINUOUS
10
6.1801
20
-1.16402
11
6.19175
21
-1.16516
0
LINE
8
BLACK
6
CONTINUOUS
10
6.19175
20
-1.16516
11
6.19175
21
-1.16516
0
LINE
8
BLACK
6
CONTINUOUS
10
6.19175
20
-1.16516
11
6.19176
21
-1.16516
0
LINE
8
BLACK
6
CONTINUOUS
10
3.27299
20
-1.3564
11
3.26173
21
-1.35889
0
LINE
8
BLACK
6
CONTINUOUS
10
3.26173
20
-1.35889
11
3.25118
21
-1.36351
0
LINE
8
BLACK
6
CONTINUOUS
10
3.25118
20
-1.36351
11
3.24173
21
-1.37009
0
LINE
8
BLACK
6
CONTINUOUS
10
3.24173
20
-1.37009
11
3.23373
21
-1.37837
0
LINE
8
BLACK
6
CONTINUOUS
10
3.23373
20
-1.37837
11
3.2275
21
-1.38806
0
LINE
8
BLACK
6
CONTINUOUS
10
3.2275
20
-1.38806
11
3.22326
21
-1.39877
0
LINE
8
BLACK
6
CONTINUOUS
10
3.22326
20
-1.39877
11
3.22119
21
-1.41011
0
LINE
8
BLACK
6
CONTINUOUS
10
3.22119
20
-1.41011
11
3.22179
21
-2.01546
0
LINE
8
BLACK
6
CONTINUOUS
10
3.22179
20
-2.01546
11
3.22178
21
-2.0156
0
LINE
8
BLACK
6
CONTINUOUS
10
3.22178
20
-2.0156
11
3.22176
21
-2.01567
0
LINE
8
BLACK
6
CONTINUOUS
10
3.22176
20
-2.01567
11
3.21685
21
-2.03494
0
LINE
8
BLACK
6
CONTINUOUS
10
3.21685
20
-2.03494
11
3.21685
21
-2.03494
0
LINE
8
BLACK
6
CONTINUOUS
10
3.21685
20
-2.03494
11
3.21685
21
-2.03494
0
LINE
8
BLACK
6
CONTINUOUS
10
3.21685
20
-2.03494
11
3.21685
21
-2.03495
0
LINE
8
BLACK
6
CONTINUOUS
10
3.21685
20
-2.03495
11
3.21682
21
-2.03503
0
LINE
8
BLACK
6
CONTINUOUS
10
3.21682
20
-2.03503
11
3.21679
21
-2.03512
0
LINE
8
BLACK
6
CONTINUOUS
10
3.21679
20
-2.03512
11
3.20822
21
-2.05308
0
LINE
8
BLACK
6
CONTINUOUS
10
3.20822
20
-2.05308
11
3.20821
21
-2.0531
0
LINE
8
BLACK
6
CONTINUOUS
10
3.20821
20
-2.0531
11
3.20817
21
-2.05318
0
LINE
8
BLACK
6
CONTINUOUS
10
3.20817
20
-2.05318
11
3.20812
21
-2.05325
0
LINE
8
BLACK
6
CONTINUOUS
10
3.20812
20
-2.05325
11
3.19623
21
-2.06921
0
LINE
8
BLACK
6
CONTINUOUS
10
3.19623
20
-2.06921
11
3.19622
21
-2.06922
0
LINE
8
BLACK
6
CONTINUOUS
10
3.19622
20
-2.06922
11
3.19616
21
-2.06929
0
LINE
8
BLACK
6
CONTINUOUS
10
3.19616
20
-2.06929
11
3.1961
21
-2.06935
0
LINE
8
BLACK
6
CONTINUOUS
10
3.1961
20
-2.06935
11
3.18133
21
-2.0827
0
LINE
8
BLACK
6
CONTINUOUS
10
3.18133
20
-2.0827
11
3.18132
21
-2.08271
0
LINE
8
BLACK
6
CONTINUOUS
10
3.18132
20
-2.08271
11
3.18125
21
-2.08276
0
LINE
8
BLACK
6
CONTINUOUS
10
3.18125
20
-2.08276
11
3.18118
21
-2.08281
0
LINE
8
BLACK
6
CONTINUOUS
10
3.18118
20
-2.08281
11
3.1641
21
-2.09304
0
LINE
8
BLACK
6
CONTINUOUS
10
3.1641
20
-2.09304
11
3.1641
21
-2.09304
0
LINE
8
BLACK
6
CONTINUOUS
10
3.1641
20
-2.09304
11
3.1641
21
-2.09304
0
LINE
8
BLACK
6
CONTINUOUS
10
3.1641
20
-2.09304
11
3.16409
21
-2.09304
0
LINE
8
BLACK
6
CONTINUOUS
10
3.16409
20
-2.09304
11
3.16401
21
-2.09308
0
LINE
8
BLACK
6
CONTINUOUS
10
3.16401
20
-2.09308
11
3.16393
21
-2.09312
0
LINE
8
BLACK
6
CONTINUOUS
10
3.16393
20
-2.09312
11
3.14519
21
-2.09983
0
LINE
8
BLACK
6
CONTINUOUS
10
3.14519
20
-2.09983
11
3.14518
21
-2.09983
0
LINE
8
BLACK
6
CONTINUOUS
10
3.14518
20
-2.09983
11
3.14513
21
-2.09985
0
LINE
8
BLACK
6
CONTINUOUS
10
3.14513
20
-2.09985
11
3.14508
21
-2.09986
0
LINE
8
BLACK
6
CONTINUOUS
10
3.14508
20
-2.09986
11
3.14026
21
-2.10095
0
LINE
8
BLACK
6
CONTINUOUS
10
3.14026
20
-2.10095
11
3.14025
21
-2.10095
0
LINE
8
BLACK
6
CONTINUOUS
10
3.14025
20
-2.10095
11
2.86025
21
-2.16095
0
LINE
8
BLACK
6
CONTINUOUS
10
2.86025
20
-2.16095
11
2.86025
21
-2.16095
0
LINE
8
BLACK
6
CONTINUOUS
10
2.86025
20
-2.16095
11
2.86019
21
-2.16097
0
LINE
8
BLACK
6
CONTINUOUS
10
2.86019
20
-2.16097
11
2.86016
21
-2.16097
0
LINE
8
BLACK
6
CONTINUOUS
10
2.86016
20
-2.16097
11
2.86016
21
-2.16097
0
LINE
8
BLACK
6
CONTINUOUS
10
2.86016
20
-2.16097
11
2.2402
21
-2.29096
0
LINE
8
BLACK
6
CONTINUOUS
10
2.2402
20
-2.29096
11
2.2402
21
-2.29096
0
LINE
8
BLACK
6
CONTINUOUS
10
2.2402
20
-2.29096
11
2.2402
21
-2.29096
0
LINE
8
BLACK
6
CONTINUOUS
10
2.2402
20
-2.29096
11
2.24016
21
-2.29097
0
LINE
8
BLACK
6
CONTINUOUS
10
2.24016
20
-2.29097
11
2.24015
21
-2.29097
0
LINE
8
BLACK
6
CONTINUOUS
10
2.24015
20
-2.29097
11
2.23955
21
-2.2911
0
LINE
8
BLACK
6
CONTINUOUS
10
2.23955
20
-2.2911
11
2.22069
21
-2.29698
0
LINE
8
BLACK
6
CONTINUOUS
10
2.22069
20
-2.29698
11
2.20337
21
-2.30638
0
LINE
8
BLACK
6
CONTINUOUS
10
2.20337
20
-2.30638
11
2.1882
21
-2.31898
0
LINE
8
BLACK
6
CONTINUOUS
10
2.1882
20
-2.31898
11
2.17577
21
-2.33427
0
LINE
8
BLACK
6
CONTINUOUS
10
2.17577
20
-2.33427
11
2.16656
21
-2.35169
0
LINE
8
BLACK
6
CONTINUOUS
10
2.16656
20
-2.35169
11
2.16089
21
-2.37057
0
LINE
8
BLACK
6
CONTINUOUS
10
2.16089
20
-2.37057
11
2.15901
21
-2.39019
0
LINE
8
BLACK
6
CONTINUOUS
10
2.15901
20
-2.39019
11
2.16097
21
-2.40985
0
LINE
8
BLACK
6
CONTINUOUS
10
2.16097
20
-2.40985
11
2.43597
21
-3.67484
0
LINE
8
BLACK
6
CONTINUOUS
10
2.43597
20
-3.67484
11
2.43597
21
-3.67484
0
LINE
8
BLACK
6
CONTINUOUS
10
2.43597
20
-3.67484
11
2.4361
21
-3.67545
0
LINE
8
BLACK
6
CONTINUOUS
10
2.4361
20
-3.67545
11
2.44198
21
-3.69431
0
LINE
8
BLACK
6
CONTINUOUS
10
2.44198
20
-3.69431
11
2.45138
21
-3.71163
0
LINE
8
BLACK
6
CONTINUOUS
10
2.45138
20
-3.71163
11
2.46398
21
-3.7268
0
LINE
8
BLACK
6
CONTINUOUS
10
2.46398
20
-3.7268
11
2.47927
21
-3.73922
0
LINE
8
BLACK
6
CONTINUOUS
10
2.47927
20
-3.73922
11
2.49669
21
-3.74844
0
LINE
8
BLACK
6
CONTINUOUS
10
2.49669
20
-3.74844
11
2.51557
21
-3.75411
0
LINE
8
BLACK
6
CONTINUOUS
10
2.51557
20
-3.75411
11
2.53519
21
-3.75599
0
LINE
8
BLACK
6
CONTINUOUS
10
2.53519
20
-3.75599
11
2.55485
21
-3.75403
0
LINE
8
BLACK
6
CONTINUOUS
10
2.55485
20
-3.75403
11
3.12719
21
-3.63246
0
LINE
8
BLACK
6
CONTINUOUS
10
3.12719
20
-3.63246
11
3.12722
21
-3.63246
0
LINE
8
BLACK
6
CONTINUOUS
10
3.12722
20
-3.63246
11
3.12724
21
-3.63245
0
LINE
8
BLACK
6
CONTINUOUS
10
3.12724
20
-3.63245
11
3.12727
21
-3.63245
0
LINE
8
BLACK
6
CONTINUOUS
10
3.12727
20
-3.63245
11
3.12729
21
-3.63244
0
LINE
8
BLACK
6
CONTINUOUS
10
3.12729
20
-3.63244
11
3.21326
21
-3.61811
0
LINE
8
BLACK
6
CONTINUOUS
10
3.21326
20
-3.61811
11
3.2133
21
-3.6181
0
LINE
8
BLACK
6
CONTINUOUS
10
3.2133
20
-3.6181
11
3.38018
21
-3.60403
0
LINE
8
BLACK
6
CONTINUOUS
10
3.38018
20
-3.60403
11
3.38022
21
-3.60403
0
LINE
8
BLACK
6
CONTINUOUS
10
3.38022
20
-3.60403
11
3.38022
21
-3.60403
0
LINE
8
BLACK
6
CONTINUOUS
10
3.38022
20
-3.60403
11
3.54749
21
-3.59578
0
LINE
8
BLACK
6
CONTINUOUS
10
3.54749
20
-3.59578
11
3.54753
21
-3.59578
0
LINE
8
BLACK
6
CONTINUOUS
10
3.54753
20
-3.59578
11
3.54753
21
-3.59578
0
LINE
8
BLACK
6
CONTINUOUS
10
3.54753
20
-3.59578
11
3.71498
21
-3.59338
0
LINE
8
BLACK
6
CONTINUOUS
10
3.71498
20
-3.59338
11
3.71499
21
-3.59338
0
LINE
8
BLACK
6
CONTINUOUS
10
3.71499
20
-3.59338
11
3.71502
21
-3.59338
0
LINE
8
BLACK
6
CONTINUOUS
10
3.71502
20
-3.59338
11
3.88246
21
-3.59683
0
LINE
8
BLACK
6
CONTINUOUS
10
3.88246
20
-3.59683
11
3.8825
21
-3.59683
0
LINE
8
BLACK
6
CONTINUOUS
10
3.8825
20
-3.59683
11
4.04972
21
-3.60612
0
LINE
8
BLACK
6
CONTINUOUS
10
4.04972
20
-3.60612
11
4.04975
21
-3.60612
0
LINE
8
BLACK
6
CONTINUOUS
10
4.04975
20
-3.60612
11
4.04975
21
-3.60612
0
LINE
8
BLACK
6
CONTINUOUS
10
4.04975
20
-3.60612
11
4.21524
21
-3.6211
0
LINE
8
BLACK
6
CONTINUOUS
10
4.21524
20
-3.6211
11
4.21525
21
-3.6211
0
LINE
8
BLACK
6
CONTINUOUS
10
4.21525
20
-3.6211
11
4.21526
21
-3.6211
0
LINE
8
BLACK
6
CONTINUOUS
10
4.21526
20
-3.6211
11
4.21527
21
-3.6211
0
LINE
8
BLACK
6
CONTINUOUS
10
4.21527
20
-3.6211
11
4.21527
21
-3.6211
0
LINE
8
BLACK
6
CONTINUOUS
10
4.21527
20
-3.6211
11
4.21528
21
-3.6211
0
LINE
8
BLACK
6
CONTINUOUS
10
4.21528
20
-3.6211
11
4.2153
21
-3.62111
0
LINE
8
BLACK
6
CONTINUOUS
10
4.2153
20
-3.62111
11
4.2153
21
-3.62111
0
LINE
8
BLACK
6
CONTINUOUS
10
4.2153
20
-3.62111
11
4.2153
21
-3.62111
0
LINE
8
BLACK
6
CONTINUOUS
10
4.2153
20
-3.62111
11
4.21531
21
-3.62111
0
LINE
8
BLACK
6
CONTINUOUS
10
4.21531
20
-3.62111
11
4.21533
21
-3.62111
0
LINE
8
BLACK
6
CONTINUOUS
10
4.21533
20
-3.62111
11
4.21533
21
-3.62111
0
LINE
8
BLACK
6
CONTINUOUS
10
4.21533
20
-3.62111
11
4.21534
21
-3.62111
0
LINE
8
BLACK
6
CONTINUOUS
10
4.21534
20
-3.62111
11
4.21535
21
-3.62112
0
LINE
8
BLACK
6
CONTINUOUS
10
4.21535
20
-3.62112
11
4.21536
21
-3.62112
0
LINE
8
BLACK
6
CONTINUOUS
10
4.21536
20
-3.62112
11
4.21537
21
-3.62112
0
LINE
8
BLACK
6
CONTINUOUS
10
4.21537
20
-3.62112
11
4.21537
21
-3.62112
0
LINE
8
BLACK
6
CONTINUOUS
10
4.21537
20
-3.62112
11
4.21538
21
-3.62112
0
LINE
8
BLACK
6
CONTINUOUS
10
4.21538
20
-3.62112
11
4.21539
21
-3.62113
0
LINE
8
BLACK
6
CONTINUOUS
10
4.21539
20
-3.62113
11
4.2154
21
-3.62113
0
LINE
8
BLACK
6
CONTINUOUS
10
4.2154
20
-3.62113
11
4.2154
21
-3.62113
0
LINE
8
BLACK
6
CONTINUOUS
10
4.2154
20
-3.62113
11
4.21541
21
-3.62113
0
LINE
8
BLACK
6
CONTINUOUS
10
4.21541
20
-3.62113
11
4.21542
21
-3.62113
0
LINE
8
BLACK
6
CONTINUOUS
10
4.21542
20
-3.62113
11
4.21543
21
-3.62114
0
LINE
8
BLACK
6
CONTINUOUS
10
4.21543
20
-3.62114
11
4.21544
21
-3.62114
0
LINE
8
BLACK
6
CONTINUOUS
10
4.21544
20
-3.62114
11
4.21545
21
-3.62114
0
LINE
8
BLACK
6
CONTINUOUS
10
4.21545
20
-3.62114
11
4.21545
21
-3.62114
0
LINE
8
BLACK
6
CONTINUOUS
10
4.21545
20
-3.62114
11
4.21546
21
-3.62115
0
LINE
8
BLACK
6
CONTINUOUS
10
4.21546
20
-3.62115
11
4.21547
21
-3.62115
0
LINE
8
BLACK
6
CONTINUOUS
10
4.21547
20
-3.62115
11
4.21548
21
-3.62115
0
LINE
8
BLACK
6
CONTINUOUS
10
4.21548
20
-3.62115
11
4.21549
21
-3.62115
0
LINE
8
BLACK
6
CONTINUOUS
10
4.21549
20
-3.62115
11
4.38834
21
-3.68453
0
LINE
8
BLACK
6
CONTINUOUS
10
4.38834
20
-3.68453
11
4.38836
21
-3.68453
0
LINE
8
BLACK
6
CONTINUOUS
10
4.38836
20
-3.68453
11
4.38837
21
-3.68454
0
LINE
8
BLACK
6
CONTINUOUS
10
4.38837
20
-3.68454
11
4.38837
21
-3.68454
0
LINE
8
BLACK
6
CONTINUOUS
10
4.38837
20
-3.68454
11
4.55903
21
-3.75361
0
LINE
8
BLACK
6
CONTINUOUS
10
4.55903
20
-3.75361
11
4.55905
21
-3.75362
0
LINE
8
BLACK
6
CONTINUOUS
10
4.55905
20
-3.75362
11
4.55905
21
-3.75362
0
LINE
8
BLACK
6
CONTINUOUS
10
4.55905
20
-3.75362
11
4.55906
21
-3.75362
0
LINE
8
BLACK
6
CONTINUOUS
10
4.55906
20
-3.75362
11
4.72733
21
-3.82831
0
LINE
8
BLACK
6
CONTINUOUS
10
4.72733
20
-3.82831
11
4.72735
21
-3.82832
0
LINE
8
BLACK
6
CONTINUOUS
10
4.72735
20
-3.82832
11
4.72736
21
-3.82832
0
LINE
8
BLACK
6
CONTINUOUS
10
4.72736
20
-3.82832
11
4.72736
21
-3.82832
0
LINE
8
BLACK
6
CONTINUOUS
10
4.72736
20
-3.82832
11
4.89307
21
-3.90855
0
LINE
8
BLACK
6
CONTINUOUS
10
4.89307
20
-3.90855
11
4.89309
21
-3.90856
0
LINE
8
BLACK
6
CONTINUOUS
10
4.89309
20
-3.90856
11
4.89309
21
-3.90856
0
LINE
8
BLACK
6
CONTINUOUS
10
4.89309
20
-3.90856
11
4.8931
21
-3.90856
0
LINE
8
BLACK
6
CONTINUOUS
10
4.8931
20
-3.90856
11
5.05605
21
-3.99424
0
LINE
8
BLACK
6
CONTINUOUS
10
5.05605
20
-3.99424
11
5.05607
21
-3.99425
0
LINE
8
BLACK
6
CONTINUOUS
10
5.05607
20
-3.99425
11
5.05608
21
-3.99425
0
LINE
8
BLACK
6
CONTINUOUS
10
5.05608
20
-3.99425
11
5.05608
21
-3.99425
0
LINE
8
BLACK
6
CONTINUOUS
10
5.05608
20
-3.99425
11
5.2161
21
-4.08528
0
LINE
8
BLACK
6
CONTINUOUS
10
5.2161
20
-4.08528
11
5.21612
21
-4.0853
0
LINE
8
BLACK
6
CONTINUOUS
10
5.21612
20
-4.0853
11
5.21613
21
-4.0853
0
LINE
8
BLACK
6
CONTINUOUS
10
5.21613
20
-4.0853
11
5.21613
21
-4.0853
0
LINE
8
BLACK
6
CONTINUOUS
10
5.21613
20
-4.0853
11
5.37305
21
-4.18159
0
LINE
8
BLACK
6
CONTINUOUS
10
5.37305
20
-4.18159
11
5.37307
21
-4.1816
0
LINE
8
BLACK
6
CONTINUOUS
10
5.37307
20
-4.1816
11
5.37307
21
-4.1816
0
LINE
8
BLACK
6
CONTINUOUS
10
5.37307
20
-4.1816
11
5.37308
21
-4.18161
0
LINE
8
BLACK
6
CONTINUOUS
10
5.37308
20
-4.18161
11
5.52672
21
-4.28304
0
LINE
8
BLACK
6
CONTINUOUS
10
5.52672
20
-4.28304
11
5.52674
21
-4.28306
0
LINE
8
BLACK
6
CONTINUOUS
10
5.52674
20
-4.28306
11
5.52674
21
-4.28306
0
LINE
8
BLACK
6
CONTINUOUS
10
5.52674
20
-4.28306
11
5.52674
21
-4.28306
0
LINE
8
BLACK
6
CONTINUOUS
10
5.52674
20
-4.28306
11
5.67693
21
-4.38954
0
LINE
8
BLACK
6
CONTINUOUS
10
5.67693
20
-4.38954
11
5.67695
21
-4.38955
0
LINE
8
BLACK
6
CONTINUOUS
10
5.67695
20
-4.38955
11
5.67695
21
-4.38955
0
LINE
8
BLACK
6
CONTINUOUS
10
5.67695
20
-4.38955
11
5.74132
21
-4.43752
0
LINE
8
BLACK
6
CONTINUOUS
10
5.74132
20
-4.43752
11
5.74132
21
-4.43753
0
LINE
8
BLACK
6
CONTINUOUS
10
5.74132
20
-4.43753
11
5.74132
21
-4.43753
0
LINE
8
BLACK
6
CONTINUOUS
10
5.74132
20
-4.43753
11
5.74638
21
-4.44132
0
LINE
8
BLACK
6
CONTINUOUS
10
5.74638
20
-4.44132
11
5.76045
21
-4.44912
0
LINE
8
BLACK
6
CONTINUOUS
10
5.76045
20
-4.44912
11
7.03507
21
-5.04986
0
LINE
8
BLACK
6
CONTINUOUS
10
7.03507
20
-5.04986
11
7.03629
21
-5.05042
0
LINE
8
BLACK
6
CONTINUOUS
10
7.03629
20
-5.05042
11
7.05148
21
-5.05548
0
LINE
8
BLACK
6
CONTINUOUS
10
7.05148
20
-5.05548
11
7.06731
21
-5.05749
0
LINE
8
BLACK
6
CONTINUOUS
10
7.06731
20
-5.05749
11
7.08323
21
-5.05639
0
LINE
8
BLACK
6
CONTINUOUS
10
7.08323
20
-5.05639
11
7.09863
21
-5.05222
0
LINE
8
BLACK
6
CONTINUOUS
10
7.09863
20
-5.05222
11
7.11294
21
-5.04513
0
LINE
8
BLACK
6
CONTINUOUS
10
7.11294
20
-5.04513
11
7.12559
21
-5.03541
0
LINE
8
BLACK
6
CONTINUOUS
10
7.12559
20
-5.03541
11
7.13611
21
-5.02341
0
LINE
8
BLACK
6
CONTINUOUS
10
7.13611
20
-5.02341
11
7.14413
21
-5.00954
0
LINE
8
BLACK
6
CONTINUOUS
10
7.14413
20
-5.00954
11
7.55411
21
-4.12958
0
LINE
8
BLACK
6
CONTINUOUS
10
7.55411
20
-4.12958
11
7.55485
21
-4.12798
0
LINE
8
BLACK
6
CONTINUOUS
10
7.55485
20
-4.12798
11
7.55993
21
-4.11292
0
LINE
8
BLACK
6
CONTINUOUS
10
7.55993
20
-4.11292
11
7.56197
21
-4.0972
0
LINE
8
BLACK
6
CONTINUOUS
10
7.56197
20
-4.0972
11
7.56093
21
-4.08139
0
LINE
8
BLACK
6
CONTINUOUS
10
7.56093
20
-4.08139
11
7.55683
21
-4.06608
0
LINE
8
BLACK
6
CONTINUOUS
10
7.55683
20
-4.06608
11
7.54984
21
-4.05185
0
LINE
8
BLACK
6
CONTINUOUS
10
7.54984
20
-4.05185
11
7.54022
21
-4.03926
0
LINE
8
BLACK
6
CONTINUOUS
10
7.54022
20
-4.03926
11
7.52833
21
-4.02877
0
LINE
8
BLACK
6
CONTINUOUS
10
7.52833
20
-4.02877
11
7.51497
21
-4.02099
0
LINE
8
BLACK
6
CONTINUOUS
10
7.51497
20
-4.02099
11
7.51496
21
-4.02099
0
LINE
8
BLACK
6
CONTINUOUS
10
7.51496
20
-4.02099
11
7.51476
21
-4.02096
0
LINE
8
BLACK
6
CONTINUOUS
10
7.51476
20
-4.02096
11
7.51463
21
-4.02091
0
LINE
8
BLACK
6
CONTINUOUS
10
7.51463
20
-4.02091
11
6.27271
21
-3.43954
0
LINE
8
BLACK
6
CONTINUOUS
10
6.27271
20
-3.43954
11
6.27258
21
-3.43946
0
LINE
8
BLACK
6
CONTINUOUS
10
6.27258
20
-3.43946
11
6.27257
21
-3.43945
0
LINE
8
BLACK
6
CONTINUOUS
10
6.27257
20
-3.43945
11
6.26273
21
-3.43326
0
LINE
8
BLACK
6
CONTINUOUS
10
6.26273
20
-3.43326
11
6.26272
21
-3.43326
0
LINE
8
BLACK
6
CONTINUOUS
10
6.26272
20
-3.43326
11
6.26265
21
-3.4332
0
LINE
8
BLACK
6
CONTINUOUS
10
6.26265
20
-3.4332
11
6.26258
21
-3.43315
0
LINE
8
BLACK
6
CONTINUOUS
10
6.26258
20
-3.43315
11
6.25407
21
-3.42511
0
LINE
8
BLACK
6
CONTINUOUS
10
6.25407
20
-3.42511
11
6.25406
21
-3.4251
0
LINE
8
BLACK
6
CONTINUOUS
10
6.25406
20
-3.4251
11
6.254
21
-3.42503
0
LINE
8
BLACK
6
CONTINUOUS
10
6.254
20
-3.42503
11
6.25394
21
-3.42496
0
LINE
8
BLACK
6
CONTINUOUS
10
6.25394
20
-3.42496
11
6.24715
21
-3.41542
0
LINE
8
BLACK
6
CONTINUOUS
10
6.24715
20
-3.41542
11
6.24715
21
-3.41542
0
LINE
8
BLACK
6
CONTINUOUS
10
6.24715
20
-3.41542
11
6.24715
21
-3.41542
0
LINE
8
BLACK
6
CONTINUOUS
10
6.24715
20
-3.41542
11
6.24714
21
-3.41541
0
LINE
8
BLACK
6
CONTINUOUS
10
6.24714
20
-3.41541
11
6.2471
21
-3.41533
0
LINE
8
BLACK
6
CONTINUOUS
10
6.2471
20
-3.41533
11
6.24705
21
-3.41525
0
LINE
8
BLACK
6
CONTINUOUS
10
6.24705
20
-3.41525
11
6.24225
21
-3.40458
0
LINE
8
BLACK
6
CONTINUOUS
10
6.24225
20
-3.40458
11
6.24224
21
-3.40456
0
LINE
8
BLACK
6
CONTINUOUS
10
6.24224
20
-3.40456
11
6.24221
21
-3.40448
0
LINE
8
BLACK
6
CONTINUOUS
10
6.24221
20
-3.40448
11
6.24219
21
-3.40439
0
LINE
8
BLACK
6
CONTINUOUS
10
6.24219
20
-3.40439
11
6.23955
21
-3.39299
0
LINE
8
BLACK
6
CONTINUOUS
10
6.23955
20
-3.39299
11
6.23954
21
-3.39297
0
LINE
8
BLACK
6
CONTINUOUS
10
6.23954
20
-3.39297
11
6.23953
21
-3.3929
0
LINE
8
BLACK
6
CONTINUOUS
10
6.23953
20
-3.3929
11
6.23952
21
-3.39283
0
LINE
8
BLACK
6
CONTINUOUS
10
6.23952
20
-3.39283
11
6.23902
21
-3.38508
0
LINE
8
BLACK
6
CONTINUOUS
10
6.23902
20
-3.38508
11
6.23902
21
-3.38505
0
LINE
8
BLACK
6
CONTINUOUS
10
6.23902
20
-3.38505
11
6.23902
21
-1.225
0
LINE
8
BLACK
6
CONTINUOUS
10
6.23902
20
-1.225
11
6.23901
21
-1.22463
0
LINE
8
BLACK
6
CONTINUOUS
10
6.23901
20
-1.22463
11
6.23781
21
-1.21313
0
LINE
8
BLACK
6
CONTINUOUS
10
6.23781
20
-1.21313
11
6.2344
21
-1.20213
0
LINE
8
BLACK
6
CONTINUOUS
10
6.2344
20
-1.20213
11
6.22892
21
-1.192
0
LINE
8
BLACK
6
CONTINUOUS
10
6.22892
20
-1.192
11
6.22158
21
-1.18313
0
LINE
8
BLACK
6
CONTINUOUS
10
6.22158
20
-1.18313
11
6.21266
21
-1.17585
0
LINE
8
BLACK
6
CONTINUOUS
10
6.21266
20
-1.17585
11
6.20249
21
-1.17044
0
LINE
8
BLACK
6
CONTINUOUS
10
6.20249
20
-1.17044
11
6.19146
21
-1.16711
0
LINE
8
BLACK
6
CONTINUOUS
10
6.19146
20
-1.16711
11
6.17995
21
-1.16598
0
LINE
8
BLACK
6
CONTINUOUS
10
6.17995
20
-1.16598
11
4.03503
21
-1.16598
0
LINE
8
BLACK
6
CONTINUOUS
10
4.03503
20
-1.16598
11
4.02799
21
-1.1664
0
LINE
8
BLACK
6
CONTINUOUS
10
4.02799
20
-1.1664
11
4.01673
21
-1.16889
0
LINE
8
BLACK
6
CONTINUOUS
10
4.01673
20
-1.16889
11
4.00618
21
-1.17351
0
LINE
8
BLACK
6
CONTINUOUS
10
4.00618
20
-1.17351
11
3.99673
21
-1.18009
0
LINE
8
BLACK
6
CONTINUOUS
10
3.99673
20
-1.18009
11
3.98873
21
-1.18837
0
LINE
8
BLACK
6
CONTINUOUS
10
3.98873
20
-1.18837
11
3.9825
21
-1.19806
0
LINE
8
BLACK
6
CONTINUOUS
10
3.9825
20
-1.19806
11
3.97826
21
-1.20877
0
LINE
8
BLACK
6
CONTINUOUS
10
3.97826
20
-1.20877
11
3.97619
21
-1.22011
0
LINE
8
BLACK
6
CONTINUOUS
10
3.97619
20
-1.22011
11
3.97598
21
-1.29505
0
LINE
8
BLACK
6
CONTINUOUS
10
3.97598
20
-1.29505
11
3.97598
21
-1.2951
0
LINE
8
BLACK
6
CONTINUOUS
10
3.97598
20
-1.2951
11
3.97598
21
-1.2951
0
LINE
8
BLACK
6
CONTINUOUS
10
3.97598
20
-1.2951
11
3.97484
21
-1.30675
0
LINE
8
BLACK
6
CONTINUOUS
10
3.97484
20
-1.30675
11
3.97484
21
-1.30676
0
LINE
8
BLACK
6
CONTINUOUS
10
3.97484
20
-1.30676
11
3.97482
21
-1.30685
0
LINE
8
BLACK
6
CONTINUOUS
10
3.97482
20
-1.30685
11
3.9748
21
-1.30694
0
LINE
8
BLACK
6
CONTINUOUS
10
3.9748
20
-1.30694
11
3.97141
21
-1.31815
0
LINE
8
BLACK
6
CONTINUOUS
10
3.97141
20
-1.31815
11
3.97141
21
-1.31816
0
LINE
8
BLACK
6
CONTINUOUS
10
3.97141
20
-1.31816
11
3.97138
21
-1.31824
0
LINE
8
BLACK
6
CONTINUOUS
10
3.97138
20
-1.31824
11
3.97134
21
-1.31833
0
LINE
8
BLACK
6
CONTINUOUS
10
3.97134
20
-1.31833
11
3.96584
21
-1.32867
0
LINE
8
BLACK
6
CONTINUOUS
10
3.96584
20
-1.32867
11
3.96584
21
-1.32868
0
LINE
8
BLACK
6
CONTINUOUS
10
3.96584
20
-1.32868
11
3.96579
21
-1.32875
0
LINE
8
BLACK
6
CONTINUOUS
10
3.96579
20
-1.32875
11
3.96574
21
-1.32883
0
LINE
8
BLACK
6
CONTINUOUS
10
3.96574
20
-1.32883
11
3.95834
21
-1.3379
0
LINE
8
BLACK
6
CONTINUOUS
10
3.95834
20
-1.3379
11
3.95833
21
-1.33791
0
LINE
8
BLACK
6
CONTINUOUS
10
3.95833
20
-1.33791
11
3.95826
21
-1.33797
0
LINE
8
BLACK
6
CONTINUOUS
10
3.95826
20
-1.33797
11
3.9582
21
-1.33804
0
LINE
8
BLACK
6
CONTINUOUS
10
3.9582
20
-1.33804
11
3.94918
21
-1.3455
0
LINE
8
BLACK
6
CONTINUOUS
10
3.94918
20
-1.3455
11
3.94917
21
-1.34551
0
LINE
8
BLACK
6
CONTINUOUS
10
3.94917
20
-1.34551
11
3.94909
21
-1.34556
0
LINE
8
BLACK
6
CONTINUOUS
10
3.94909
20
-1.34556
11
3.94902
21
-1.34561
0
LINE
8
BLACK
6
CONTINUOUS
10
3.94902
20
-1.34561
11
3.93872
21
-1.35118
0
LINE
8
BLACK
6
CONTINUOUS
10
3.93872
20
-1.35118
11
3.93871
21
-1.35118
0
LINE
8
BLACK
6
CONTINUOUS
10
3.93871
20
-1.35118
11
3.93862
21
-1.35122
0
LINE
8
BLACK
6
CONTINUOUS
10
3.93862
20
-1.35122
11
3.93854
21
-1.35125
0
LINE
8
BLACK
6
CONTINUOUS
10
3.93854
20
-1.35125
11
3.92736
21
-1.35471
0
LINE
8
BLACK
6
CONTINUOUS
10
3.92736
20
-1.35471
11
3.92734
21
-1.35472
0
LINE
8
BLACK
6
CONTINUOUS
10
3.92734
20
-1.35472
11
3.92725
21
-1.35474
0
LINE
8
BLACK
6
CONTINUOUS
10
3.92725
20
-1.35474
11
3.92717
21
-1.35475
0
LINE
8
BLACK
6
CONTINUOUS
10
3.92717
20
-1.35475
11
3.91552
21
-1.35598
0
LINE
8
BLACK
6
CONTINUOUS
10
3.91552
20
-1.35598
11
3.91551
21
-1.35598
0
LINE
8
BLACK
6
CONTINUOUS
10
3.91551
20
-1.35598
11
3.91546
21
-1.35598
0
LINE
8
BLACK
6
CONTINUOUS
10
3.91546
20
-1.35598
11
3.91542
21
-1.35598
0
LINE
8
BLACK
6
CONTINUOUS
10
3.91542
20
-1.35598
11
3.91505
21
-1.35598
0
LINE
8
BLACK
6
CONTINUOUS
10
3.91505
20
-1.35598
11
3.91505
21
-1.35598
0
LINE
8
BLACK
6
CONTINUOUS
10
3.91505
20
-1.35598
11
3.28003
21
-1.35598
0
LINE
8
BLACK
6
CONTINUOUS
10
3.28003
20
-1.35598
11
3.27299
21
-1.3564
  0
ENDSEC
  0
EOF
