G04 #@! TF.GenerationSoftware,KiCad,Pcbnew,(5.1.5-0-10_14)*
G04 #@! TF.CreationDate,2019-12-09T00:37:27+09:00*
G04 #@! TF.ProjectId,craftwalk-pcb_top,63726166-7477-4616-9c6b-2d7063625f74,rev?*
G04 #@! TF.SameCoordinates,Original*
G04 #@! TF.FileFunction,Soldermask,Bot*
G04 #@! TF.FilePolarity,Negative*
%FSLAX46Y46*%
G04 Gerber Fmt 4.6, Leading zero omitted, Abs format (unit mm)*
G04 Created by KiCad (PCBNEW (5.1.5-0-10_14)) date 2019-12-09 00:37:27*
%MOMM*%
%LPD*%
G04 APERTURE LIST*
%ADD10C,0.100000*%
G04 APERTURE END LIST*
D10*
G36*
X151807731Y-106670331D02*
G01*
X152135492Y-106806094D01*
X152430470Y-107003192D01*
X152681328Y-107254050D01*
X152878426Y-107549028D01*
X153014189Y-107876789D01*
X153083400Y-108224736D01*
X153083400Y-108579504D01*
X153014189Y-108927451D01*
X152878426Y-109255212D01*
X152681328Y-109550190D01*
X152430470Y-109801048D01*
X152135492Y-109998146D01*
X151807731Y-110133909D01*
X151459784Y-110203120D01*
X151105016Y-110203120D01*
X150757069Y-110133909D01*
X150429308Y-109998146D01*
X150134330Y-109801048D01*
X149883472Y-109550190D01*
X149686374Y-109255212D01*
X149550611Y-108927451D01*
X149481400Y-108579504D01*
X149481400Y-108224736D01*
X149550611Y-107876789D01*
X149686374Y-107549028D01*
X149883472Y-107254050D01*
X150134330Y-107003192D01*
X150429308Y-106806094D01*
X150757069Y-106670331D01*
X151105016Y-106601120D01*
X151459784Y-106601120D01*
X151807731Y-106670331D01*
G37*
G36*
X105897231Y-105463831D02*
G01*
X106224992Y-105599594D01*
X106519970Y-105796692D01*
X106770828Y-106047550D01*
X106967926Y-106342528D01*
X107103689Y-106670289D01*
X107172900Y-107018236D01*
X107172900Y-107373004D01*
X107103689Y-107720951D01*
X106967926Y-108048712D01*
X106770828Y-108343690D01*
X106519970Y-108594548D01*
X106224992Y-108791646D01*
X105897231Y-108927409D01*
X105549284Y-108996620D01*
X105194516Y-108996620D01*
X104846569Y-108927409D01*
X104518808Y-108791646D01*
X104223830Y-108594548D01*
X103972972Y-108343690D01*
X103775874Y-108048712D01*
X103640111Y-107720951D01*
X103570900Y-107373004D01*
X103570900Y-107018236D01*
X103640111Y-106670289D01*
X103775874Y-106342528D01*
X103972972Y-106047550D01*
X104223830Y-105796692D01*
X104518808Y-105599594D01*
X104846569Y-105463831D01*
X105194516Y-105394620D01*
X105549284Y-105394620D01*
X105897231Y-105463831D01*
G37*
G36*
X76750731Y-75174331D02*
G01*
X77078492Y-75310094D01*
X77373470Y-75507192D01*
X77624328Y-75758050D01*
X77821426Y-76053028D01*
X77957189Y-76380789D01*
X78026400Y-76728736D01*
X78026400Y-77083504D01*
X77957189Y-77431451D01*
X77821426Y-77759212D01*
X77624328Y-78054190D01*
X77373470Y-78305048D01*
X77078492Y-78502146D01*
X76750731Y-78637909D01*
X76402784Y-78707120D01*
X76048016Y-78707120D01*
X75700069Y-78637909D01*
X75372308Y-78502146D01*
X75077330Y-78305048D01*
X74826472Y-78054190D01*
X74629374Y-77759212D01*
X74493611Y-77431451D01*
X74424400Y-77083504D01*
X74424400Y-76728736D01*
X74493611Y-76380789D01*
X74629374Y-76053028D01*
X74826472Y-75758050D01*
X75077330Y-75507192D01*
X75372308Y-75310094D01*
X75700069Y-75174331D01*
X76048016Y-75105120D01*
X76402784Y-75105120D01*
X76750731Y-75174331D01*
G37*
G36*
X122216731Y-49266331D02*
G01*
X122544492Y-49402094D01*
X122839470Y-49599192D01*
X123090328Y-49850050D01*
X123287426Y-50145028D01*
X123423189Y-50472789D01*
X123492400Y-50820736D01*
X123492400Y-51175504D01*
X123423189Y-51523451D01*
X123287426Y-51851212D01*
X123090328Y-52146190D01*
X122839470Y-52397048D01*
X122544492Y-52594146D01*
X122216731Y-52729909D01*
X121868784Y-52799120D01*
X121514016Y-52799120D01*
X121166069Y-52729909D01*
X120838308Y-52594146D01*
X120543330Y-52397048D01*
X120292472Y-52146190D01*
X120095374Y-51851212D01*
X119959611Y-51523451D01*
X119890400Y-51175504D01*
X119890400Y-50820736D01*
X119959611Y-50472789D01*
X120095374Y-50145028D01*
X120292472Y-49850050D01*
X120543330Y-49599192D01*
X120838308Y-49402094D01*
X121166069Y-49266331D01*
X121514016Y-49197120D01*
X121868784Y-49197120D01*
X122216731Y-49266331D01*
G37*
M02*
