<?xml version="1.0" standalone="no"?>
 <!DOCTYPE svg PUBLIC "-//W3C//DTD SVG 1.1//EN" 
 "http://www.w3.org/Graphics/SVG/1.1/DTD/svg11.dtd"> 
<svg xmlns="http://www.w3.org/2000/svg" version="1.1" 
    width="29.7002cm" height="21.0007cm" viewBox="0 0 116930 82680 ">
<title>SVG Picture created as craftwalk-pcb_top-B_Mask.svg date 2019/12/18 01:36:00 </title>
  <desc>Picture generated by PCBNEW </desc>
<g style="fill:#000000; fill-opacity:1;stroke:#000000; stroke-opacity:1;
stroke-linecap:round; stroke-linejoin:round; "
 transform="translate(0 0) scale(1 1)">
</g>
<g style="fill:#000000; fill-opacity:0.0; 
stroke:#000000; stroke-width:-0.000393701; stroke-opacity:1; 
stroke-linecap:round; stroke-linejoin:round;">
</g>
<g style="fill:#000000; fill-opacity:1.0; 
stroke:#000000; stroke-width:0; stroke-opacity:1; 
stroke-linecap:round; stroke-linejoin:round;">
<path style="fill:#000000; fill-opacity:1.0; 
stroke:#000000; stroke-width:0; stroke-opacity:1; 
stroke-linecap:round; stroke-linejoin:round;fill-rule:evenodd;"
d="M 59766.8,41996.2
59895.9,42049.6
60012,42127.2
60110.8,42226
60188.4,42342.1
60241.8,42471.2
60269.1,42608.2
60269.1,42747.8
60241.8,42884.8
60188.4,43013.9
60110.8,43130
60012,43228.8
59895.9,43306.4
59766.8,43359.8
59629.8,43387.1
59490.2,43387.1
59353.2,43359.8
59224.1,43306.4
59108,43228.8
59009.2,43130
58931.6,43013.9
58878.2,42884.8
58850.9,42747.8
58850.9,42608.2
58878.2,42471.2
58931.6,42342.1
59009.2,42226
59108,42127.2
59224.1,42049.6
59353.2,41996.2
59490.2,41968.9
59629.8,41968.9
Z" /> 
<path style="fill:#000000; fill-opacity:1.0; 
stroke:#000000; stroke-width:0; stroke-opacity:1; 
stroke-linecap:round; stroke-linejoin:round;fill-rule:evenodd;"
d="M 41691.8,41521.2
41820.9,41574.6
41937,41652.2
42035.8,41751
42113.4,41867.1
42166.8,41996.2
42194.1,42133.2
42194.1,42272.8
42166.8,42409.8
42113.4,42538.9
42035.8,42655
41937,42753.8
41820.9,42831.4
41691.8,42884.8
41554.8,42912.1
41415.2,42912.1
41278.2,42884.8
41149.1,42831.4
41033,42753.8
40934.2,42655
40856.6,42538.9
40803.2,42409.8
40775.9,42272.8
40775.9,42133.2
40803.2,41996.2
40856.6,41867.1
40934.2,41751
41033,41652.2
41149.1,41574.6
41278.2,41521.2
41415.2,41493.9
41554.8,41493.9
Z" /> 
<path style="fill:#000000; fill-opacity:1.0; 
stroke:#000000; stroke-width:0; stroke-opacity:1; 
stroke-linecap:round; stroke-linejoin:round;fill-rule:evenodd;"
d="M 30216.8,29596.2
30345.9,29649.6
30462,29727.2
30560.8,29826
30638.4,29942.1
30691.8,30071.2
30719.1,30208.2
30719.1,30347.8
30691.8,30484.8
30638.4,30613.9
30560.8,30730
30462,30828.8
30345.9,30906.4
30216.8,30959.8
30079.8,30987.1
29940.2,30987.1
29803.2,30959.8
29674.1,30906.4
29558,30828.8
29459.2,30730
29381.6,30613.9
29328.2,30484.8
29300.9,30347.8
29300.9,30208.2
29328.2,30071.2
29381.6,29942.1
29459.2,29826
29558,29727.2
29674.1,29649.6
29803.2,29596.2
29940.2,29568.9
30079.8,29568.9
Z" /> 
<path style="fill:#000000; fill-opacity:1.0; 
stroke:#000000; stroke-width:0; stroke-opacity:1; 
stroke-linecap:round; stroke-linejoin:round;fill-rule:evenodd;"
d="M 48116.8,19396.2
48245.9,19449.6
48362,19527.2
48460.8,19626
48538.4,19742.1
48591.8,19871.2
48619.1,20008.2
48619.1,20147.8
48591.8,20284.8
48538.4,20413.9
48460.8,20530
48362,20628.8
48245.9,20706.4
48116.8,20759.8
47979.8,20787.1
47840.2,20787.1
47703.2,20759.8
47574.1,20706.4
47458,20628.8
47359.2,20530
47281.6,20413.9
47228.2,20284.8
47200.9,20147.8
47200.9,20008.2
47228.2,19871.2
47281.6,19742.1
47359.2,19626
47458,19527.2
47574.1,19449.6
47703.2,19396.2
47840.2,19368.9
47979.8,19368.9
Z" /> 
</g> 
</svg>
