<?xml version="1.0" standalone="no"?>
 <!DOCTYPE svg PUBLIC "-//W3C//DTD SVG 1.1//EN" 
 "http://www.w3.org/Graphics/SVG/1.1/DTD/svg11.dtd"> 
<svg xmlns="http://www.w3.org/2000/svg" version="1.1" 
    width="29.7002cm" height="21.0007cm" viewBox="0 0 116930 82680 ">
<title>SVG Picture created as craftwalk-pcb_top-Edge_Cuts.svg date 2019/12/18 01:36:00 </title>
  <desc>Picture generated by PCBNEW </desc>
<g style="fill:#000000; fill-opacity:1;stroke:#000000; stroke-opacity:1;
stroke-linecap:round; stroke-linejoin:round; "
 transform="translate(0 0) scale(1 1)">
</g>
<g style="fill:#000000; fill-opacity:0.0; 
stroke:#000000; stroke-width:-0.000393701; stroke-opacity:1; 
stroke-linecap:round; stroke-linejoin:round;">
</g>
<g style="fill:#000000; fill-opacity:0.0; 
stroke:#000000; stroke-width:19.685; stroke-opacity:1; 
stroke-linecap:round; stroke-linejoin:round;">
<path d="M68000 47669
L72996 49998
" />
<path d="M72996 49998
L70666 54994
" />
<path d="M70666 54994
L65671 52664
" />
<path d="M65671 52664
L68000 47669
" />
<path d="M66200 46826
L63870 51822
" />
<path d="M63870 51822
L58875 49492
" />
<path d="M58875 49492
L61204 44497
" />
<path d="M61204 44497
L66200 46826
" />
<path d="M24569 43820
L23423 38429
" />
<path d="M23423 38429
L28814 37283
" />
<path d="M29960 42674
L24569 43820
" />
<path d="M28814 37283
L29960 42674
" />
<path d="M22963 36518
L21817 31127
" />
<path d="M21817 31127
L27208 29981
" />
<path d="M28354 35372
L22963 36518
" />
<path d="M27208 29981
L28354 35372
" />
<path d="M54998 40435
L54998 34924
" />
<path d="M54998 34924
L60509 34924
" />
<path d="M60509 40435
L54998 40435
" />
<path d="M60509 34924
L60509 40435
" />
<path d="M53003 42303
L47492 42303
" />
<path d="M53003 36792
L53003 42303
" />
<path d="M47492 42303
L47492 36792
" />
<path d="M47492 36792
L53003 36792
" />
<path d="M45519 40437
L40008 40437
" />
<path d="M40008 40437
L40008 34926
" />
<path d="M40008 34926
L45519 34926
" />
<path d="M45519 34926
L45519 40437
" />
<path d="M32502 36796
L38013 36796
" />
<path d="M38013 42307
L32502 42307
" />
<path d="M38013 36796
L38013 42307
" />
<path d="M32502 42307
L32502 36796
" />
<path d="M53001 29304
L53001 34815
" />
<path d="M53001 34815
L47490 34815
" />
<path d="M47490 29304
L53001 29304
" />
<path d="M47490 34815
L47490 29304
" />
<path d="M39988 32941
L39988 27430
" />
<path d="M39988 27430
L45499 27430
" />
<path d="M45499 27430
L45499 32941
" />
<path d="M45499 32941
L39988 32941
" />
<path d="M38015 29314
L38015 34825
" />
<path d="M32504 34825
L32504 29314
" />
<path d="M38015 34825
L32504 34825
" />
<path d="M32504 29314
L38015 29314
" />
<path d="M47496 27309
L47496 21798
" />
<path d="M53007 27309
L47496 27309
" />
<path d="M53007 21798
L53007 27309
" />
<path d="M47496 21798
L53007 21798
" />
<path d="M39994 25437
L39994 19926
" />
<path d="M45505 19926
L45505 25437
" />
<path d="M45505 25437
L39994 25437
" />
<path d="M39994 19926
L45505 19926
" />
<path d="M32500 27313
L32500 21802
" />
<path d="M38011 27313
L32500 27313
" />
<path d="M38011 21802
L38011 27313
" />
<path d="M32500 21802
L38011 21802
" />
<path d="M61604 33894
L61608 33910
" />
<path d="M61604 33894
L61600 33884
" />
<path d="M54080 33654
L54080 33628
" />
<path d="M54082 33666
L54080 33654
" />
<path d="M54090 33686
L54082 33666
" />
<path d="M54106 33704
L54090 33686
" />
<path d="M54126 33716
L54106 33704
" />
<path d="M54148 33724
L54126 33716
" />
<path d="M54172 33732
L54148 33724
" />
<path d="M54198 33734
L54172 33732
" />
<path d="M54080 19478
L54080 33628
" />
<path d="M61592 33864
L61600 33884
" />
<path d="M61576 33840
L61592 33864
" />
<path d="M61558 33818
L61576 33840
" />
<path d="M61530 33792
L61558 33818
" />
<path d="M61508 33774
L61530 33792
" />
<path d="M61482 33760
L61508 33774
" />
<path d="M61430 33742
L61482 33760
" />
<path d="M61382 33736
L61430 33742
" />
<path d="M54198 33734
L61382 33736
" />
<path d="M21610 30128 A1019.8 1019.8 0.0 0 0 20810 31328 " />
<path d="M30610 28228 A1019.8 1019.8 0.0 0 0 31418.1 27382.1 " />
<path d="M21610 30128
L27810 28828
" />
<path d="M23560 43978 A1019.8 1019.8 0.0 0 0 24760 44778 " />
<path d="M20810 31328
L23560 43978
" />
<path d="M27810 28828
L30610 28228
" />
<path d="M39560 18878 A600 600 0.0 0 0 38962.1 19428.2 " />
<path d="M32010 20778 A600 600 0.0 0 0 31412.1 21328.2 " />
<path d="M31418 27382
L31412 21328
" />
<path d="M38360 20778 A600 600 0.0 0 0 38960 20178 " />
<path d="M32010 20778
L38360 20778
" />
<path d="M38960 20178
L38962 19428
" />
<path d="M54080 19478 A600 600 0.0 0 0 53500 18878.3 " />
<path d="M39560 18878
L53500 18878
" />
<path d="M24759 44778
L30484 43562
" />
<path d="M61610 41078 A600 600 0.0 0 0 61941.7 41614.7 " />
<path d="M61608 33910
L61610 41078
" />
<path d="M74760 48528 A822.028 822.028 0.0 0 0 74360.5 47426.9 " />
<path d="M61941 41614
L74360 47428
" />
<path d="M69556.5 57735.5 A827.647 827.647 0.0 0 0 70660 57328 " />
<path d="M74760 48528
L70660 57328
" />
<path d="M69556 57735
L56810 51728
" />
<path d="M56617.3 51611.1 A829.623 829.623 0.0 0 0 56810 51728 " />
<path d="M56617.3 51611.1 A55520.5 55520.5 0.0 0 0 41361.5 43448.8 " />
<path d="M41361.5 43448.8 A47981.6 47981.6 0.0 0 0 31343.8 43418.8 " />
<path d="M30484 43562
L31343 43418
" />
<g >
</g>
<g >
</g>
<g >
</g>
<g >
</g>
<g >
</g>
</g> 
</svg>
