  0
SECTION
  2
HEADER
  9
$ANGBASE
  50
0.0
  9
$ANGDIR
  70
1
  9
$MEASUREMENT
  70
0
  0
ENDSEC
  0
SECTION
  2
TABLES
  0
TABLE
  2
LTYPE
  70
4
  0
LTYPE
  5
40F
  2
CONTINUOUS
  70
0
  3
Solid line
  72
65
  73
0
  40
0.0
  0
LTYPE
  5
410
  2
DASHDOT
 70
0
  3
Dash Dot ____ _ ____ _
 72
65
 73
4
 40
2.0
 49
1.25
 49
-0.25
 49
0.25
 49
-0.25
  0
LTYPE
  5
411
  2
DASHED
 70
0
  3
Dashed __ __ __ __ __
 72
65
 73
2
 40
0.75
 49
0.5
 49
-0.25
  0
LTYPE
  5
43B
  2
DOTTED
 70
0
  3
Dotted .  .  .  .
 72
65
 73
2
 40
0.2
 49
0.0
 49
-0.2
  0
ENDTAB
  0
TABLE
  2
STYLE
  70
4
  0
STYLE
  2
KICAD
  70
0
  40
0
  41
1
  42
1
  50
0
  71
0
  3
isocp.shx
  0
STYLE
  2
KICADB
  70
0
  40
0
  41
1
  42
1
  50
0
  71
0
  3
isocp.shx
  0
STYLE
  2
KICADI
  70
0
  40
0
  41
1
  42
1
  50
15
  71
0
  3
isocp.shx
  0
STYLE
  2
KICADBI
  70
0
  40
0
  41
1
  42
1
  50
15
  71
0
  3
isocp.shx
  0
ENDTAB
  0
TABLE
  2
LAYER
  70
1
  0
LAYER
  2
BLACK
  70
0
  62
7
  6
CONTINUOUS
  0
ENDTAB
  0
ENDSEC
  0
SECTION
  2
ENTITIES
0
LINE
8
BLACK
6
CONTINUOUS
10
5.941
20
-3.51649
11
5.94837
21
-3.4987
0
LINE
8
BLACK
6
CONTINUOUS
10
5.94837
20
-3.4987
11
5.95907
21
-3.48268
0
LINE
8
BLACK
6
CONTINUOUS
10
5.95907
20
-3.48268
11
5.97268
21
-3.46907
0
LINE
8
BLACK
6
CONTINUOUS
10
5.97268
20
-3.46907
11
5.9887
21
-3.45837
0
LINE
8
BLACK
6
CONTINUOUS
10
5.9887
20
-3.45837
11
6.00649
21
-3.451
0
LINE
8
BLACK
6
CONTINUOUS
10
6.00649
20
-3.451
11
6.02537
21
-3.44724
0
LINE
8
BLACK
6
CONTINUOUS
10
6.02537
20
-3.44724
11
6.04463
21
-3.44724
0
LINE
8
BLACK
6
CONTINUOUS
10
6.04463
20
-3.44724
11
6.06351
21
-3.451
0
LINE
8
BLACK
6
CONTINUOUS
10
6.06351
20
-3.451
11
6.0813
21
-3.45837
0
LINE
8
BLACK
6
CONTINUOUS
10
6.0813
20
-3.45837
11
6.09732
21
-3.46907
0
LINE
8
BLACK
6
CONTINUOUS
10
6.09732
20
-3.46907
11
6.11093
21
-3.48268
0
LINE
8
BLACK
6
CONTINUOUS
10
6.11093
20
-3.48268
11
6.12163
21
-3.4987
0
LINE
8
BLACK
6
CONTINUOUS
10
6.12163
20
-3.4987
11
6.129
21
-3.51649
0
LINE
8
BLACK
6
CONTINUOUS
10
6.129
20
-3.51649
11
6.13276
21
-3.53537
0
LINE
8
BLACK
6
CONTINUOUS
10
6.13276
20
-3.53537
11
6.13276
21
-3.55463
0
LINE
8
BLACK
6
CONTINUOUS
10
6.13276
20
-3.55463
11
6.129
21
-3.57351
0
LINE
8
BLACK
6
CONTINUOUS
10
6.129
20
-3.57351
11
6.12163
21
-3.5913
0
LINE
8
BLACK
6
CONTINUOUS
10
6.12163
20
-3.5913
11
6.11093
21
-3.60732
0
LINE
8
BLACK
6
CONTINUOUS
10
6.11093
20
-3.60732
11
6.09732
21
-3.62093
0
LINE
8
BLACK
6
CONTINUOUS
10
6.09732
20
-3.62093
11
6.0813
21
-3.63163
0
LINE
8
BLACK
6
CONTINUOUS
10
6.0813
20
-3.63163
11
6.06351
21
-3.639
0
LINE
8
BLACK
6
CONTINUOUS
10
6.06351
20
-3.639
11
6.04463
21
-3.64276
0
LINE
8
BLACK
6
CONTINUOUS
10
6.04463
20
-3.64276
11
6.02537
21
-3.64276
0
LINE
8
BLACK
6
CONTINUOUS
10
6.02537
20
-3.64276
11
6.00649
21
-3.639
0
LINE
8
BLACK
6
CONTINUOUS
10
6.00649
20
-3.639
11
5.9887
21
-3.63163
0
LINE
8
BLACK
6
CONTINUOUS
10
5.9887
20
-3.63163
11
5.97268
21
-3.62093
0
LINE
8
BLACK
6
CONTINUOUS
10
5.97268
20
-3.62093
11
5.95907
21
-3.60732
0
LINE
8
BLACK
6
CONTINUOUS
10
5.95907
20
-3.60732
11
5.94837
21
-3.5913
0
LINE
8
BLACK
6
CONTINUOUS
10
5.94837
20
-3.5913
11
5.941
21
-3.57351
0
LINE
8
BLACK
6
CONTINUOUS
10
5.941
20
-3.57351
11
5.93724
21
-3.55463
0
LINE
8
BLACK
6
CONTINUOUS
10
5.93724
20
-3.55463
11
5.93724
21
-3.53537
0
LINE
8
BLACK
6
CONTINUOUS
10
5.93724
20
-3.53537
11
5.941
21
-3.51649
0
LINE
8
BLACK
6
CONTINUOUS
10
5.94364
20
-3.57271
11
5.9508
21
-3.59001
0
LINE
8
BLACK
6
CONTINUOUS
10
5.9508
20
-3.59001
11
5.9612
21
-3.60557
0
LINE
8
BLACK
6
CONTINUOUS
10
5.9612
20
-3.60557
11
5.97443
21
-3.6188
0
LINE
8
BLACK
6
CONTINUOUS
10
5.97443
20
-3.6188
11
5.98999
21
-3.6292
0
LINE
8
BLACK
6
CONTINUOUS
10
5.98999
20
-3.6292
11
6.00729
21
-3.63636
0
LINE
8
BLACK
6
CONTINUOUS
10
6.00729
20
-3.63636
11
6.02564
21
-3.64001
0
LINE
8
BLACK
6
CONTINUOUS
10
6.02564
20
-3.64001
11
6.04436
21
-3.64001
0
LINE
8
BLACK
6
CONTINUOUS
10
6.04436
20
-3.64001
11
6.06271
21
-3.63636
0
LINE
8
BLACK
6
CONTINUOUS
10
6.06271
20
-3.63636
11
6.08001
21
-3.6292
0
LINE
8
BLACK
6
CONTINUOUS
10
6.08001
20
-3.6292
11
6.09557
21
-3.6188
0
LINE
8
BLACK
6
CONTINUOUS
10
6.09557
20
-3.6188
11
6.1088
21
-3.60557
0
LINE
8
BLACK
6
CONTINUOUS
10
6.1088
20
-3.60557
11
6.1192
21
-3.59001
0
LINE
8
BLACK
6
CONTINUOUS
10
6.1192
20
-3.59001
11
6.12636
21
-3.57271
0
LINE
8
BLACK
6
CONTINUOUS
10
6.12636
20
-3.57271
11
6.13001
21
-3.55436
0
LINE
8
BLACK
6
CONTINUOUS
10
6.13001
20
-3.55436
11
6.13001
21
-3.53564
0
LINE
8
BLACK
6
CONTINUOUS
10
6.13001
20
-3.53564
11
6.12636
21
-3.51729
0
LINE
8
BLACK
6
CONTINUOUS
10
6.12636
20
-3.51729
11
6.1192
21
-3.49999
0
LINE
8
BLACK
6
CONTINUOUS
10
6.1192
20
-3.49999
11
6.1088
21
-3.48443
0
LINE
8
BLACK
6
CONTINUOUS
10
6.1088
20
-3.48443
11
6.09557
21
-3.4712
0
LINE
8
BLACK
6
CONTINUOUS
10
6.09557
20
-3.4712
11
6.08001
21
-3.4608
0
LINE
8
BLACK
6
CONTINUOUS
10
6.08001
20
-3.4608
11
6.06271
21
-3.45364
0
LINE
8
BLACK
6
CONTINUOUS
10
6.06271
20
-3.45364
11
6.04436
21
-3.44999
0
LINE
8
BLACK
6
CONTINUOUS
10
6.04436
20
-3.44999
11
6.02564
21
-3.44999
0
LINE
8
BLACK
6
CONTINUOUS
10
6.02564
20
-3.44999
11
6.00729
21
-3.45364
0
LINE
8
BLACK
6
CONTINUOUS
10
6.00729
20
-3.45364
11
5.98999
21
-3.4608
0
LINE
8
BLACK
6
CONTINUOUS
10
5.98999
20
-3.4608
11
5.97443
21
-3.4712
0
LINE
8
BLACK
6
CONTINUOUS
10
5.97443
20
-3.4712
11
5.9612
21
-3.48443
0
LINE
8
BLACK
6
CONTINUOUS
10
5.9612
20
-3.48443
11
5.9508
21
-3.49999
0
LINE
8
BLACK
6
CONTINUOUS
10
5.9508
20
-3.49999
11
5.94364
21
-3.51729
0
LINE
8
BLACK
6
CONTINUOUS
10
5.94364
20
-3.51729
11
5.93999
21
-3.53564
0
LINE
8
BLACK
6
CONTINUOUS
10
5.93999
20
-3.53564
11
5.93999
21
-3.55436
0
LINE
8
BLACK
6
CONTINUOUS
10
5.93999
20
-3.55436
11
5.94364
21
-3.57271
0
LINE
8
BLACK
6
CONTINUOUS
10
4.1335
20
-3.46899
11
4.14087
21
-3.4512
0
LINE
8
BLACK
6
CONTINUOUS
10
4.14087
20
-3.4512
11
4.15157
21
-3.43518
0
LINE
8
BLACK
6
CONTINUOUS
10
4.15157
20
-3.43518
11
4.16518
21
-3.42157
0
LINE
8
BLACK
6
CONTINUOUS
10
4.16518
20
-3.42157
11
4.1812
21
-3.41087
0
LINE
8
BLACK
6
CONTINUOUS
10
4.1812
20
-3.41087
11
4.19899
21
-3.4035
0
LINE
8
BLACK
6
CONTINUOUS
10
4.19899
20
-3.4035
11
4.21787
21
-3.39974
0
LINE
8
BLACK
6
CONTINUOUS
10
4.21787
20
-3.39974
11
4.23713
21
-3.39974
0
LINE
8
BLACK
6
CONTINUOUS
10
4.23713
20
-3.39974
11
4.25601
21
-3.4035
0
LINE
8
BLACK
6
CONTINUOUS
10
4.25601
20
-3.4035
11
4.2738
21
-3.41087
0
LINE
8
BLACK
6
CONTINUOUS
10
4.2738
20
-3.41087
11
4.28982
21
-3.42157
0
LINE
8
BLACK
6
CONTINUOUS
10
4.28982
20
-3.42157
11
4.30343
21
-3.43518
0
LINE
8
BLACK
6
CONTINUOUS
10
4.30343
20
-3.43518
11
4.31413
21
-3.4512
0
LINE
8
BLACK
6
CONTINUOUS
10
4.31413
20
-3.4512
11
4.3215
21
-3.46899
0
LINE
8
BLACK
6
CONTINUOUS
10
4.3215
20
-3.46899
11
4.32526
21
-3.48787
0
LINE
8
BLACK
6
CONTINUOUS
10
4.32526
20
-3.48787
11
4.32526
21
-3.50713
0
LINE
8
BLACK
6
CONTINUOUS
10
4.32526
20
-3.50713
11
4.3215
21
-3.52601
0
LINE
8
BLACK
6
CONTINUOUS
10
4.3215
20
-3.52601
11
4.31413
21
-3.5438
0
LINE
8
BLACK
6
CONTINUOUS
10
4.31413
20
-3.5438
11
4.30343
21
-3.55982
0
LINE
8
BLACK
6
CONTINUOUS
10
4.30343
20
-3.55982
11
4.28982
21
-3.57343
0
LINE
8
BLACK
6
CONTINUOUS
10
4.28982
20
-3.57343
11
4.2738
21
-3.58413
0
LINE
8
BLACK
6
CONTINUOUS
10
4.2738
20
-3.58413
11
4.25601
21
-3.5915
0
LINE
8
BLACK
6
CONTINUOUS
10
4.25601
20
-3.5915
11
4.23713
21
-3.59526
0
LINE
8
BLACK
6
CONTINUOUS
10
4.23713
20
-3.59526
11
4.21787
21
-3.59526
0
LINE
8
BLACK
6
CONTINUOUS
10
4.21787
20
-3.59526
11
4.19899
21
-3.5915
0
LINE
8
BLACK
6
CONTINUOUS
10
4.19899
20
-3.5915
11
4.1812
21
-3.58413
0
LINE
8
BLACK
6
CONTINUOUS
10
4.1812
20
-3.58413
11
4.16518
21
-3.57343
0
LINE
8
BLACK
6
CONTINUOUS
10
4.16518
20
-3.57343
11
4.15157
21
-3.55982
0
LINE
8
BLACK
6
CONTINUOUS
10
4.15157
20
-3.55982
11
4.14087
21
-3.5438
0
LINE
8
BLACK
6
CONTINUOUS
10
4.14087
20
-3.5438
11
4.1335
21
-3.52601
0
LINE
8
BLACK
6
CONTINUOUS
10
4.1335
20
-3.52601
11
4.12974
21
-3.50713
0
LINE
8
BLACK
6
CONTINUOUS
10
4.12974
20
-3.50713
11
4.12974
21
-3.48787
0
LINE
8
BLACK
6
CONTINUOUS
10
4.12974
20
-3.48787
11
4.1335
21
-3.46899
0
LINE
8
BLACK
6
CONTINUOUS
10
4.13614
20
-3.52521
11
4.1433
21
-3.54251
0
LINE
8
BLACK
6
CONTINUOUS
10
4.1433
20
-3.54251
11
4.1537
21
-3.55807
0
LINE
8
BLACK
6
CONTINUOUS
10
4.1537
20
-3.55807
11
4.16693
21
-3.5713
0
LINE
8
BLACK
6
CONTINUOUS
10
4.16693
20
-3.5713
11
4.18249
21
-3.5817
0
LINE
8
BLACK
6
CONTINUOUS
10
4.18249
20
-3.5817
11
4.19979
21
-3.58886
0
LINE
8
BLACK
6
CONTINUOUS
10
4.19979
20
-3.58886
11
4.21814
21
-3.59251
0
LINE
8
BLACK
6
CONTINUOUS
10
4.21814
20
-3.59251
11
4.23686
21
-3.59251
0
LINE
8
BLACK
6
CONTINUOUS
10
4.23686
20
-3.59251
11
4.25521
21
-3.58886
0
LINE
8
BLACK
6
CONTINUOUS
10
4.25521
20
-3.58886
11
4.27251
21
-3.5817
0
LINE
8
BLACK
6
CONTINUOUS
10
4.27251
20
-3.5817
11
4.28807
21
-3.5713
0
LINE
8
BLACK
6
CONTINUOUS
10
4.28807
20
-3.5713
11
4.3013
21
-3.55807
0
LINE
8
BLACK
6
CONTINUOUS
10
4.3013
20
-3.55807
11
4.3117
21
-3.54251
0
LINE
8
BLACK
6
CONTINUOUS
10
4.3117
20
-3.54251
11
4.31886
21
-3.52521
0
LINE
8
BLACK
6
CONTINUOUS
10
4.31886
20
-3.52521
11
4.32251
21
-3.50686
0
LINE
8
BLACK
6
CONTINUOUS
10
4.32251
20
-3.50686
11
4.32251
21
-3.48814
0
LINE
8
BLACK
6
CONTINUOUS
10
4.32251
20
-3.48814
11
4.31886
21
-3.46979
0
LINE
8
BLACK
6
CONTINUOUS
10
4.31886
20
-3.46979
11
4.3117
21
-3.45249
0
LINE
8
BLACK
6
CONTINUOUS
10
4.3117
20
-3.45249
11
4.3013
21
-3.43693
0
LINE
8
BLACK
6
CONTINUOUS
10
4.3013
20
-3.43693
11
4.28807
21
-3.4237
0
LINE
8
BLACK
6
CONTINUOUS
10
4.28807
20
-3.4237
11
4.27251
21
-3.4133
0
LINE
8
BLACK
6
CONTINUOUS
10
4.27251
20
-3.4133
11
4.25521
21
-3.40614
0
LINE
8
BLACK
6
CONTINUOUS
10
4.25521
20
-3.40614
11
4.23686
21
-3.40249
0
LINE
8
BLACK
6
CONTINUOUS
10
4.23686
20
-3.40249
11
4.21814
21
-3.40249
0
LINE
8
BLACK
6
CONTINUOUS
10
4.21814
20
-3.40249
11
4.19979
21
-3.40614
0
LINE
8
BLACK
6
CONTINUOUS
10
4.19979
20
-3.40614
11
4.18249
21
-3.4133
0
LINE
8
BLACK
6
CONTINUOUS
10
4.18249
20
-3.4133
11
4.16693
21
-3.4237
0
LINE
8
BLACK
6
CONTINUOUS
10
4.16693
20
-3.4237
11
4.1537
21
-3.43693
0
LINE
8
BLACK
6
CONTINUOUS
10
4.1537
20
-3.43693
11
4.1433
21
-3.45249
0
LINE
8
BLACK
6
CONTINUOUS
10
4.1433
20
-3.45249
11
4.13614
21
-3.46979
0
LINE
8
BLACK
6
CONTINUOUS
10
4.13614
20
-3.46979
11
4.13249
21
-3.48814
0
LINE
8
BLACK
6
CONTINUOUS
10
4.13249
20
-3.48814
11
4.13249
21
-3.50686
0
LINE
8
BLACK
6
CONTINUOUS
10
4.13249
20
-3.50686
11
4.13614
21
-3.52521
0
LINE
8
BLACK
6
CONTINUOUS
10
2.986
20
-2.27649
11
2.99337
21
-2.2587
0
LINE
8
BLACK
6
CONTINUOUS
10
2.99337
20
-2.2587
11
3.00407
21
-2.24268
0
LINE
8
BLACK
6
CONTINUOUS
10
3.00407
20
-2.24268
11
3.01768
21
-2.22907
0
LINE
8
BLACK
6
CONTINUOUS
10
3.01768
20
-2.22907
11
3.0337
21
-2.21837
0
LINE
8
BLACK
6
CONTINUOUS
10
3.0337
20
-2.21837
11
3.05149
21
-2.211
0
LINE
8
BLACK
6
CONTINUOUS
10
3.05149
20
-2.211
11
3.07037
21
-2.20724
0
LINE
8
BLACK
6
CONTINUOUS
10
3.07037
20
-2.20724
11
3.08963
21
-2.20724
0
LINE
8
BLACK
6
CONTINUOUS
10
3.08963
20
-2.20724
11
3.10851
21
-2.211
0
LINE
8
BLACK
6
CONTINUOUS
10
3.10851
20
-2.211
11
3.1263
21
-2.21837
0
LINE
8
BLACK
6
CONTINUOUS
10
3.1263
20
-2.21837
11
3.14232
21
-2.22907
0
LINE
8
BLACK
6
CONTINUOUS
10
3.14232
20
-2.22907
11
3.15593
21
-2.24268
0
LINE
8
BLACK
6
CONTINUOUS
10
3.15593
20
-2.24268
11
3.16663
21
-2.2587
0
LINE
8
BLACK
6
CONTINUOUS
10
3.16663
20
-2.2587
11
3.174
21
-2.27649
0
LINE
8
BLACK
6
CONTINUOUS
10
3.174
20
-2.27649
11
3.17776
21
-2.29537
0
LINE
8
BLACK
6
CONTINUOUS
10
3.17776
20
-2.29537
11
3.17776
21
-2.31463
0
LINE
8
BLACK
6
CONTINUOUS
10
3.17776
20
-2.31463
11
3.174
21
-2.33351
0
LINE
8
BLACK
6
CONTINUOUS
10
3.174
20
-2.33351
11
3.16663
21
-2.3513
0
LINE
8
BLACK
6
CONTINUOUS
10
3.16663
20
-2.3513
11
3.15593
21
-2.36732
0
LINE
8
BLACK
6
CONTINUOUS
10
3.15593
20
-2.36732
11
3.14232
21
-2.38093
0
LINE
8
BLACK
6
CONTINUOUS
10
3.14232
20
-2.38093
11
3.1263
21
-2.39163
0
LINE
8
BLACK
6
CONTINUOUS
10
3.1263
20
-2.39163
11
3.10851
21
-2.399
0
LINE
8
BLACK
6
CONTINUOUS
10
3.10851
20
-2.399
11
3.08963
21
-2.40276
0
LINE
8
BLACK
6
CONTINUOUS
10
3.08963
20
-2.40276
11
3.07037
21
-2.40276
0
LINE
8
BLACK
6
CONTINUOUS
10
3.07037
20
-2.40276
11
3.05149
21
-2.399
0
LINE
8
BLACK
6
CONTINUOUS
10
3.05149
20
-2.399
11
3.0337
21
-2.39163
0
LINE
8
BLACK
6
CONTINUOUS
10
3.0337
20
-2.39163
11
3.01768
21
-2.38093
0
LINE
8
BLACK
6
CONTINUOUS
10
3.01768
20
-2.38093
11
3.00407
21
-2.36732
0
LINE
8
BLACK
6
CONTINUOUS
10
3.00407
20
-2.36732
11
2.99337
21
-2.3513
0
LINE
8
BLACK
6
CONTINUOUS
10
2.99337
20
-2.3513
11
2.986
21
-2.33351
0
LINE
8
BLACK
6
CONTINUOUS
10
2.986
20
-2.33351
11
2.98224
21
-2.31463
0
LINE
8
BLACK
6
CONTINUOUS
10
2.98224
20
-2.31463
11
2.98224
21
-2.29537
0
LINE
8
BLACK
6
CONTINUOUS
10
2.98224
20
-2.29537
11
2.986
21
-2.27649
0
LINE
8
BLACK
6
CONTINUOUS
10
2.98864
20
-2.33271
11
2.9958
21
-2.35001
0
LINE
8
BLACK
6
CONTINUOUS
10
2.9958
20
-2.35001
11
3.0062
21
-2.36557
0
LINE
8
BLACK
6
CONTINUOUS
10
3.0062
20
-2.36557
11
3.01943
21
-2.3788
0
LINE
8
BLACK
6
CONTINUOUS
10
3.01943
20
-2.3788
11
3.03499
21
-2.3892
0
LINE
8
BLACK
6
CONTINUOUS
10
3.03499
20
-2.3892
11
3.05229
21
-2.39636
0
LINE
8
BLACK
6
CONTINUOUS
10
3.05229
20
-2.39636
11
3.07064
21
-2.40001
0
LINE
8
BLACK
6
CONTINUOUS
10
3.07064
20
-2.40001
11
3.08936
21
-2.40001
0
LINE
8
BLACK
6
CONTINUOUS
10
3.08936
20
-2.40001
11
3.10771
21
-2.39636
0
LINE
8
BLACK
6
CONTINUOUS
10
3.10771
20
-2.39636
11
3.12501
21
-2.3892
0
LINE
8
BLACK
6
CONTINUOUS
10
3.12501
20
-2.3892
11
3.14057
21
-2.3788
0
LINE
8
BLACK
6
CONTINUOUS
10
3.14057
20
-2.3788
11
3.1538
21
-2.36557
0
LINE
8
BLACK
6
CONTINUOUS
10
3.1538
20
-2.36557
11
3.1642
21
-2.35001
0
LINE
8
BLACK
6
CONTINUOUS
10
3.1642
20
-2.35001
11
3.17136
21
-2.33271
0
LINE
8
BLACK
6
CONTINUOUS
10
3.17136
20
-2.33271
11
3.17501
21
-2.31436
0
LINE
8
BLACK
6
CONTINUOUS
10
3.17501
20
-2.31436
11
3.17501
21
-2.29564
0
LINE
8
BLACK
6
CONTINUOUS
10
3.17501
20
-2.29564
11
3.17136
21
-2.27729
0
LINE
8
BLACK
6
CONTINUOUS
10
3.17136
20
-2.27729
11
3.1642
21
-2.25999
0
LINE
8
BLACK
6
CONTINUOUS
10
3.1642
20
-2.25999
11
3.1538
21
-2.24443
0
LINE
8
BLACK
6
CONTINUOUS
10
3.1538
20
-2.24443
11
3.14057
21
-2.2312
0
LINE
8
BLACK
6
CONTINUOUS
10
3.14057
20
-2.2312
11
3.12501
21
-2.2208
0
LINE
8
BLACK
6
CONTINUOUS
10
3.12501
20
-2.2208
11
3.10771
21
-2.21364
0
LINE
8
BLACK
6
CONTINUOUS
10
3.10771
20
-2.21364
11
3.08936
21
-2.20999
0
LINE
8
BLACK
6
CONTINUOUS
10
3.08936
20
-2.20999
11
3.07064
21
-2.20999
0
LINE
8
BLACK
6
CONTINUOUS
10
3.07064
20
-2.20999
11
3.05229
21
-2.21364
0
LINE
8
BLACK
6
CONTINUOUS
10
3.05229
20
-2.21364
11
3.03499
21
-2.2208
0
LINE
8
BLACK
6
CONTINUOUS
10
3.03499
20
-2.2208
11
3.01943
21
-2.2312
0
LINE
8
BLACK
6
CONTINUOUS
10
3.01943
20
-2.2312
11
3.0062
21
-2.24443
0
LINE
8
BLACK
6
CONTINUOUS
10
3.0062
20
-2.24443
11
2.9958
21
-2.25999
0
LINE
8
BLACK
6
CONTINUOUS
10
2.9958
20
-2.25999
11
2.98864
21
-2.27729
0
LINE
8
BLACK
6
CONTINUOUS
10
2.98864
20
-2.27729
11
2.98499
21
-2.29564
0
LINE
8
BLACK
6
CONTINUOUS
10
2.98499
20
-2.29564
11
2.98499
21
-2.31436
0
LINE
8
BLACK
6
CONTINUOUS
10
2.98499
20
-2.31436
11
2.98864
21
-2.33271
0
LINE
8
BLACK
6
CONTINUOUS
10
4.776
20
-1.25649
11
4.78337
21
-1.2387
0
LINE
8
BLACK
6
CONTINUOUS
10
4.78337
20
-1.2387
11
4.79407
21
-1.22268
0
LINE
8
BLACK
6
CONTINUOUS
10
4.79407
20
-1.22268
11
4.80768
21
-1.20907
0
LINE
8
BLACK
6
CONTINUOUS
10
4.80768
20
-1.20907
11
4.8237
21
-1.19837
0
LINE
8
BLACK
6
CONTINUOUS
10
4.8237
20
-1.19837
11
4.84149
21
-1.191
0
LINE
8
BLACK
6
CONTINUOUS
10
4.84149
20
-1.191
11
4.86037
21
-1.18724
0
LINE
8
BLACK
6
CONTINUOUS
10
4.86037
20
-1.18724
11
4.87963
21
-1.18724
0
LINE
8
BLACK
6
CONTINUOUS
10
4.87963
20
-1.18724
11
4.89851
21
-1.191
0
LINE
8
BLACK
6
CONTINUOUS
10
4.89851
20
-1.191
11
4.9163
21
-1.19837
0
LINE
8
BLACK
6
CONTINUOUS
10
4.9163
20
-1.19837
11
4.93232
21
-1.20907
0
LINE
8
BLACK
6
CONTINUOUS
10
4.93232
20
-1.20907
11
4.94593
21
-1.22268
0
LINE
8
BLACK
6
CONTINUOUS
10
4.94593
20
-1.22268
11
4.95663
21
-1.2387
0
LINE
8
BLACK
6
CONTINUOUS
10
4.95663
20
-1.2387
11
4.964
21
-1.25649
0
LINE
8
BLACK
6
CONTINUOUS
10
4.964
20
-1.25649
11
4.96776
21
-1.27537
0
LINE
8
BLACK
6
CONTINUOUS
10
4.96776
20
-1.27537
11
4.96776
21
-1.29463
0
LINE
8
BLACK
6
CONTINUOUS
10
4.96776
20
-1.29463
11
4.964
21
-1.31351
0
LINE
8
BLACK
6
CONTINUOUS
10
4.964
20
-1.31351
11
4.95663
21
-1.3313
0
LINE
8
BLACK
6
CONTINUOUS
10
4.95663
20
-1.3313
11
4.94593
21
-1.34732
0
LINE
8
BLACK
6
CONTINUOUS
10
4.94593
20
-1.34732
11
4.93232
21
-1.36093
0
LINE
8
BLACK
6
CONTINUOUS
10
4.93232
20
-1.36093
11
4.9163
21
-1.37163
0
LINE
8
BLACK
6
CONTINUOUS
10
4.9163
20
-1.37163
11
4.89851
21
-1.379
0
LINE
8
BLACK
6
CONTINUOUS
10
4.89851
20
-1.379
11
4.87963
21
-1.38276
0
LINE
8
BLACK
6
CONTINUOUS
10
4.87963
20
-1.38276
11
4.86037
21
-1.38276
0
LINE
8
BLACK
6
CONTINUOUS
10
4.86037
20
-1.38276
11
4.84149
21
-1.379
0
LINE
8
BLACK
6
CONTINUOUS
10
4.84149
20
-1.379
11
4.8237
21
-1.37163
0
LINE
8
BLACK
6
CONTINUOUS
10
4.8237
20
-1.37163
11
4.80768
21
-1.36093
0
LINE
8
BLACK
6
CONTINUOUS
10
4.80768
20
-1.36093
11
4.79407
21
-1.34732
0
LINE
8
BLACK
6
CONTINUOUS
10
4.79407
20
-1.34732
11
4.78337
21
-1.3313
0
LINE
8
BLACK
6
CONTINUOUS
10
4.78337
20
-1.3313
11
4.776
21
-1.31351
0
LINE
8
BLACK
6
CONTINUOUS
10
4.776
20
-1.31351
11
4.77224
21
-1.29463
0
LINE
8
BLACK
6
CONTINUOUS
10
4.77224
20
-1.29463
11
4.77224
21
-1.27537
0
LINE
8
BLACK
6
CONTINUOUS
10
4.77224
20
-1.27537
11
4.776
21
-1.25649
0
LINE
8
BLACK
6
CONTINUOUS
10
4.77864
20
-1.31271
11
4.7858
21
-1.33001
0
LINE
8
BLACK
6
CONTINUOUS
10
4.7858
20
-1.33001
11
4.7962
21
-1.34557
0
LINE
8
BLACK
6
CONTINUOUS
10
4.7962
20
-1.34557
11
4.80943
21
-1.3588
0
LINE
8
BLACK
6
CONTINUOUS
10
4.80943
20
-1.3588
11
4.82499
21
-1.3692
0
LINE
8
BLACK
6
CONTINUOUS
10
4.82499
20
-1.3692
11
4.84229
21
-1.37636
0
LINE
8
BLACK
6
CONTINUOUS
10
4.84229
20
-1.37636
11
4.86064
21
-1.38001
0
LINE
8
BLACK
6
CONTINUOUS
10
4.86064
20
-1.38001
11
4.87936
21
-1.38001
0
LINE
8
BLACK
6
CONTINUOUS
10
4.87936
20
-1.38001
11
4.89771
21
-1.37636
0
LINE
8
BLACK
6
CONTINUOUS
10
4.89771
20
-1.37636
11
4.91501
21
-1.3692
0
LINE
8
BLACK
6
CONTINUOUS
10
4.91501
20
-1.3692
11
4.93057
21
-1.3588
0
LINE
8
BLACK
6
CONTINUOUS
10
4.93057
20
-1.3588
11
4.9438
21
-1.34557
0
LINE
8
BLACK
6
CONTINUOUS
10
4.9438
20
-1.34557
11
4.9542
21
-1.33001
0
LINE
8
BLACK
6
CONTINUOUS
10
4.9542
20
-1.33001
11
4.96136
21
-1.31271
0
LINE
8
BLACK
6
CONTINUOUS
10
4.96136
20
-1.31271
11
4.96501
21
-1.29436
0
LINE
8
BLACK
6
CONTINUOUS
10
4.96501
20
-1.29436
11
4.96501
21
-1.27564
0
LINE
8
BLACK
6
CONTINUOUS
10
4.96501
20
-1.27564
11
4.96136
21
-1.25729
0
LINE
8
BLACK
6
CONTINUOUS
10
4.96136
20
-1.25729
11
4.9542
21
-1.23999
0
LINE
8
BLACK
6
CONTINUOUS
10
4.9542
20
-1.23999
11
4.9438
21
-1.22443
0
LINE
8
BLACK
6
CONTINUOUS
10
4.9438
20
-1.22443
11
4.93057
21
-1.2112
0
LINE
8
BLACK
6
CONTINUOUS
10
4.93057
20
-1.2112
11
4.91501
21
-1.2008
0
LINE
8
BLACK
6
CONTINUOUS
10
4.91501
20
-1.2008
11
4.89771
21
-1.19364
0
LINE
8
BLACK
6
CONTINUOUS
10
4.89771
20
-1.19364
11
4.87936
21
-1.18999
0
LINE
8
BLACK
6
CONTINUOUS
10
4.87936
20
-1.18999
11
4.86064
21
-1.18999
0
LINE
8
BLACK
6
CONTINUOUS
10
4.86064
20
-1.18999
11
4.84229
21
-1.19364
0
LINE
8
BLACK
6
CONTINUOUS
10
4.84229
20
-1.19364
11
4.82499
21
-1.2008
0
LINE
8
BLACK
6
CONTINUOUS
10
4.82499
20
-1.2008
11
4.80943
21
-1.2112
0
LINE
8
BLACK
6
CONTINUOUS
10
4.80943
20
-1.2112
11
4.7962
21
-1.22443
0
LINE
8
BLACK
6
CONTINUOUS
10
4.7962
20
-1.22443
11
4.7858
21
-1.23999
0
LINE
8
BLACK
6
CONTINUOUS
10
4.7858
20
-1.23999
11
4.77864
21
-1.25729
0
LINE
8
BLACK
6
CONTINUOUS
10
4.77864
20
-1.25729
11
4.77499
21
-1.27564
0
LINE
8
BLACK
6
CONTINUOUS
10
4.77499
20
-1.27564
11
4.77499
21
-1.29436
0
LINE
8
BLACK
6
CONTINUOUS
10
4.77499
20
-1.29436
11
4.77864
21
-1.31271
  0
ENDSEC
  0
EOF
